<svg xmlns="http://www.w3.org/2000/svg" width="182" height="46" viewBox="0 0 182 46" fill="none"><path fill-rule="evenodd" clip-rule="evenodd" d="M12.5882 45.5009C16.7277 41.6752 20.2678 37.248 23.0896 32.3681C22.0458 27.9393 20.0191 24.3001 17.9719 20.8359C15.0893 27.9815 10.4912 34.3067 4.58398 39.2524C6.8128 41.8441 9.53336 43.9679 12.5882 45.5009Z" fill="url(#paint0_linear_78_612)"></path><path fill-rule="evenodd" clip-rule="evenodd" d="M8.20633 42.7164C13.2375 38.3623 17.38 33.0766 20.406 27.1502C19.4605 25.0994 18.6469 22.9903 17.97 20.8359C15.0874 27.9815 10.4893 34.3068 4.58203 39.2525C5.67803 40.5187 6.89122 41.6785 8.20544 42.7164H8.20633Z" fill="url(#paint1_linear_78_612)"></path><path fill-rule="evenodd" clip-rule="evenodd" d="M33.1621 8.32235C36.3877 11.352 38.3426 15.4939 38.6313 19.9104C38.9201 24.3268 37.5212 28.6881 34.7176 32.1122C35.1473 34.4123 38.0338 37.7202 41.6162 39.2534C45.9331 34.166 48.286 27.7005 48.2485 21.0278C48.2485 12.8129 44.7889 5.43081 39.3438 0.501953L33.1621 8.32235Z" fill="url(#paint2_linear_78_612)"></path><path fill-rule="evenodd" clip-rule="evenodd" d="M43.4577 21.0267C43.4857 26.4812 41.5449 31.7628 37.9919 35.9007C39.1378 37.0829 40.3474 38.2015 41.6153 39.2515C45.9322 34.164 48.285 27.6985 48.2477 21.0258C48.2477 12.811 44.7881 5.42886 39.3428 0.5L36.252 4.40004C40.6533 8.409 43.4577 14.3673 43.4577 21.0267Z" fill="url(#paint3_linear_78_612)"></path><path fill-rule="evenodd" clip-rule="evenodd" d="M8.37071 26.4592C7.80617 24.71 7.52288 22.8821 7.5314 21.044C7.51306 18.6578 7.99335 16.2942 8.94166 14.1046C9.88997 11.915 11.2852 9.94772 13.038 8.32901L6.85582 0.501953C5.64373 1.59918 4.54002 2.81057 3.55997 4.11935C-2.41761 11.9903 -0.902534 22.777 8.37071 26.4603V26.4592Z" fill="url(#paint4_linear_78_612)"></path><path fill-rule="evenodd" clip-rule="evenodd" d="M8.36934 26.4599C7.80473 24.7106 7.52144 22.8828 7.53003 21.0446C7.51142 18.6582 7.99164 16.2944 8.93995 14.1045C9.88826 11.9146 11.2836 9.94725 13.0366 8.32841L9.9464 4.40332C3.82559 9.972 -0.391493 22.097 8.36934 26.4599Z" fill="url(#paint5_linear_78_612)"></path><path fill-rule="evenodd" clip-rule="evenodd" d="M3.41673 17.0765C0.919321 13.7658 0.571291 8.81119 3.55997 4.11914C-2.41761 11.9901 -0.902534 22.7768 8.37071 26.4601C4.39928 24.4869 3.089 20.9132 3.41673 17.0765Z" fill="url(#paint6_linear_78_612)"></path><path fill-rule="evenodd" clip-rule="evenodd" d="M7.55249 20.153C5.91493 19.5245 4.48355 18.4545 3.41729 17.0615C3.08978 20.8985 4.39983 24.472 8.37128 26.4451C7.80667 24.6958 7.52338 22.868 7.53197 21.0298C7.53197 20.7448 7.53217 20.4598 7.55249 20.153Z" fill="url(#paint7_linear_78_612)"></path><path fill-rule="evenodd" clip-rule="evenodd" d="M35.5969 30.9648C35.3272 31.3626 35.0333 31.7433 34.7168 32.105C36.7395 34.7401 39.0536 37.1378 41.6153 39.2524C41.9225 38.9018 42.209 38.5289 42.5162 38.1342L42.4546 38.0909C39.9114 35.9777 37.6113 33.5872 35.5969 30.9648Z" fill="url(#paint8_linear_78_612)"></path><path fill-rule="evenodd" clip-rule="evenodd" d="M28.2285 20.8366H17.9727C20.9669 30.272 26.3554 38.7699 33.6124 45.5009C36.6672 43.9679 39.3878 41.8441 41.6166 39.2524C35.7093 34.3068 31.111 27.9821 28.2285 20.8366Z" fill="url(#paint9_linear_78_612)"></path><path fill-rule="evenodd" clip-rule="evenodd" d="M23.0703 20.8359C26.0998 29.3863 31.361 37.0379 37.9936 42.7164C39.3077 41.6785 40.5208 40.5187 41.6168 39.2525C35.7095 34.3068 31.1114 27.9815 28.2289 20.8359H23.0703Z" fill="url(#paint10_linear_78_612)"></path><path d="M68.0076 6.80556L64.8341 28.1944H61.2292L59.5038 14.1083L57.7784 28.1944H54.1735L51 6.80556H54.2967L56.0838 21.2583L57.8708 6.80556H61.1984L62.9854 21.2583L64.7724 6.80556H68.0076ZM70.5514 28.1944V6.80556H73.8172V15.8195H77.6995V6.80556H80.9652V28.1944H77.6995V18.875H73.8172V28.1944H70.5514ZM84.5423 6.80556H93.8164V9.86112H87.8089V15.8195H92.5841V18.875H87.8089V25.1389H93.8164V28.1944H84.5423V6.80556ZM95.5005 6.80556H105.914V9.86112H102.341V28.1944H99.0741V9.86112H95.5005V6.80556ZM112.933 28.5C111.906 28.5 110.991 28.2759 110.19 27.8278C109.389 27.3797 108.762 26.7584 108.31 25.9639C107.879 25.1695 107.663 24.263 107.663 23.2444V22.4806L110.806 22.1445V22.9389C110.806 23.713 110.991 24.324 111.361 24.7723C111.731 25.2204 112.244 25.4444 112.901 25.4444C113.538 25.4444 114.042 25.2611 114.411 24.8945C114.801 24.5278 114.997 24.0287 114.997 23.3973C114.997 22.7046 114.791 22.0426 114.38 21.4111C113.99 20.7797 113.199 19.9037 112.008 18.7834C110.406 17.2759 109.307 16.0231 108.711 15.025C108.136 14.0268 107.849 12.937 107.849 11.7556C107.849 10.1463 108.29 8.8731 109.174 7.93605C110.057 6.97866 111.268 6.5 112.809 6.5C114.349 6.5 115.561 6.97866 116.445 7.93605C117.328 8.89354 117.77 10.1769 117.77 11.7861V12.3361L114.627 12.6723V12.0611C114.627 11.2463 114.473 10.625 114.165 10.1972C113.856 9.76944 113.415 9.55555 112.84 9.55555C112.265 9.55555 111.823 9.72873 111.515 10.075C111.207 10.4213 111.053 10.9305 111.053 11.6027C111.053 12.275 111.258 12.9268 111.669 13.5583C112.08 14.1695 112.87 15.0555 114.042 16.2166C115.644 17.8055 116.732 19.0889 117.307 20.0667C117.903 21.0241 118.201 22.0833 118.201 23.2444C118.201 24.263 117.975 25.1695 117.523 25.9639C117.091 26.7584 116.476 27.3797 115.674 27.8278C114.873 28.2759 113.96 28.5 112.933 28.5ZM119.842 6.80556H130.257V9.86112H126.682V28.1944H123.416V9.86112H119.842V6.80556ZM137.735 28.5C136.174 28.5 134.911 28.0315 133.945 27.0945C132.98 26.1371 132.498 24.8843 132.498 23.3361V11.6639C132.498 10.1157 132.98 8.8731 133.945 7.93605C134.911 6.97866 136.174 6.5 137.735 6.5C139.297 6.5 140.56 6.97866 141.525 7.93605C142.49 8.8731 142.973 10.1157 142.973 11.6639V23.3361C142.973 24.8843 142.49 26.1371 141.525 27.0945C140.56 28.0315 139.297 28.5 137.735 28.5ZM137.735 25.4444C138.352 25.4444 138.834 25.2611 139.183 24.8945C139.532 24.5278 139.707 24.0083 139.707 23.3361V11.6639C139.707 10.9917 139.532 10.4722 139.183 10.1055C138.834 9.73891 138.352 9.55555 137.735 9.55555C137.119 9.55555 136.637 9.73891 136.288 10.1055C135.938 10.4722 135.764 10.9917 135.764 11.6639V23.3361C135.764 24.0083 135.938 24.5278 136.288 24.8945C136.637 25.2611 137.119 25.4444 137.735 25.4444ZM146.284 6.80556H149.889L154.049 21.1666V6.80556H157.253V28.1944H153.802L149.489 14.5056V28.1944H146.284V6.80556ZM160.817 6.80556H170.091V9.86112H164.084V15.8195H168.859V18.875H164.084V25.1389H170.091V28.1944H160.817V6.80556ZM182 9.55555L175.838 25.1389H182V28.1944H172.202V25.4444L178.364 9.86112H172.202V6.80556H182V9.55555Z" fill="white"></path><path d="M54.2787 31.8652V37.0303H53.4316V31.8652H54.2787ZM57.4562 32.8685C57.7782 32.8685 58.0655 32.9354 58.3181 33.0692C58.5756 33.2029 58.7762 33.4012 58.9199 33.6637C59.0636 33.9263 59.1354 34.2434 59.1354 34.615V37.0303H58.2958V34.7413C58.2958 34.3747 58.2041 34.0948 58.0209 33.9015C57.8376 33.7033 57.5874 33.6043 57.2705 33.6043C56.9534 33.6043 56.7008 33.7033 56.5126 33.9015C56.3293 34.0948 56.2377 34.3747 56.2377 34.7413V37.0303H55.3907V32.9354H56.2377V33.4036C56.3764 33.2351 56.5522 33.1039 56.7652 33.0097C56.9832 32.9156 57.2135 32.8685 57.4562 32.8685ZM61.9321 33.6266H61.1743V37.0303H60.3198V33.6266H59.8369V32.9354H60.3198V32.6456C60.3198 32.1749 60.4437 31.833 60.6913 31.62C60.9439 31.402 61.3377 31.293 61.8727 31.293V31.999C61.6151 31.999 61.4343 32.0486 61.3303 32.1476C61.2263 32.2418 61.1743 32.4077 61.1743 32.6456V32.9354H61.9321V33.6266ZM64.4585 37.0972C64.0722 37.0972 63.723 37.0105 63.4109 36.8371C63.0988 36.6587 62.8537 36.411 62.6753 36.0939C62.497 35.7719 62.4079 35.4003 62.4079 34.9791C62.4079 34.563 62.4995 34.1938 62.6828 33.8718C62.8661 33.5498 63.1162 33.302 63.4332 33.1286C63.7502 32.9552 64.1044 32.8685 64.4957 32.8685C64.887 32.8685 65.2412 32.9552 65.5582 33.1286C65.8752 33.302 66.1254 33.5498 66.3086 33.8718C66.4919 34.1938 66.5835 34.563 66.5835 34.9791C66.5835 35.3953 66.4894 35.7645 66.3012 36.0865C66.1129 36.4085 65.8554 36.6587 65.5284 36.8371C65.2065 37.0105 64.8499 37.0972 64.4585 37.0972ZM64.4585 36.3615C64.6765 36.3615 64.8796 36.3094 65.0678 36.2054C65.261 36.1014 65.417 35.9453 65.5359 35.7372C65.6547 35.5291 65.7142 35.2764 65.7142 34.9791C65.7142 34.6819 65.6573 34.4317 65.5433 34.2285C65.4294 34.0204 65.2783 33.8644 65.0901 33.7603C64.9019 33.6563 64.6988 33.6043 64.4808 33.6043C64.2629 33.6043 64.0598 33.6563 63.8716 33.7603C63.6883 33.8644 63.5422 34.0204 63.4332 34.2285C63.3243 34.4317 63.2697 34.6819 63.2697 34.9791C63.2697 35.4201 63.3812 35.7619 63.6041 36.0047C63.832 36.2426 64.1167 36.3615 64.4585 36.3615ZM68.2678 33.5299C68.3917 33.3219 68.5552 33.1608 68.7582 33.0469C68.9661 32.928 69.2114 32.8685 69.4937 32.8685V33.7455H69.2782C68.9463 33.7455 68.6938 33.8297 68.5205 33.9981C68.352 34.1666 68.2678 34.4589 68.2678 34.8751V37.0303H67.4208V32.9354H68.2678V33.5299ZM75.2284 32.8685C75.5501 32.8685 75.8378 32.9354 76.09 33.0692C76.3476 33.2029 76.548 33.4012 76.6919 33.6637C76.8405 33.9263 76.9148 34.2434 76.9148 34.615V37.0303H76.075V34.7413C76.075 34.3747 75.9836 34.0948 75.8003 33.9015C75.6169 33.7033 75.3667 33.6043 75.0498 33.6043C74.7328 33.6043 74.4799 33.7033 74.2918 33.9015C74.1084 34.0948 74.0171 34.3747 74.0171 34.7413V37.0303H73.1773V34.7413C73.1773 34.3747 73.0859 34.0948 72.9026 33.9015C72.7192 33.7033 72.469 33.6043 72.1521 33.6043C71.8351 33.6043 71.5822 33.7033 71.3941 33.9015C71.2107 34.0948 71.1194 34.3747 71.1194 34.7413V37.0303H70.2721V32.9354H71.1194V33.4036C71.2578 33.2351 71.4336 33.1039 71.647 33.0097C71.8597 32.9156 72.088 32.8685 72.3307 32.8685C72.6572 32.8685 72.9496 32.9379 73.2073 33.0766C73.4649 33.2154 73.6626 33.416 73.8017 33.6786C73.9257 33.4309 74.1186 33.2351 74.3811 33.0915C74.6435 32.9428 74.9257 32.8685 75.2284 32.8685ZM77.7102 34.9643C77.7102 34.5531 77.7948 34.1889 77.9631 33.8718C78.1363 33.5547 78.3687 33.3094 78.6611 33.1361C78.9583 32.9577 79.2855 32.8685 79.642 32.8685C79.9638 32.8685 80.2439 32.9329 80.4818 33.0617C80.7245 33.1856 80.9174 33.3417 81.0612 33.5299V32.9354H81.9153V37.0303H81.0612V36.4209C80.9174 36.6142 80.7218 36.7752 80.4743 36.904C80.2262 37.0328 79.944 37.0972 79.627 37.0972C79.2753 37.0972 78.9536 37.008 78.6611 36.8297C78.3687 36.6463 78.1363 36.3936 77.9631 36.0716C77.7948 35.7446 77.7102 35.3755 77.7102 34.9643ZM81.0612 34.9791C81.0612 34.6967 81.0019 34.4515 80.8826 34.2434C80.7688 34.0353 80.6181 33.8768 80.4293 33.7678C80.2412 33.6587 80.0381 33.6043 79.8206 33.6043C79.6025 33.6043 79.3994 33.6587 79.2112 33.7678C79.0231 33.8718 78.869 34.0279 78.7504 34.236C78.6366 34.4391 78.5793 34.6819 78.5793 34.9643C78.5793 35.2467 78.6366 35.4944 78.7504 35.7075C78.869 35.9205 79.0231 36.084 79.2112 36.198C79.4041 36.307 79.6073 36.3615 79.8206 36.3615C80.0381 36.3615 80.2412 36.307 80.4293 36.198C80.6181 36.0889 80.7688 35.9304 80.8826 35.7223C81.0019 35.5093 81.0612 35.2616 81.0612 34.9791ZM84.0162 33.6266V35.8933C84.0162 36.0469 84.0509 36.1584 84.1205 36.2277C84.1948 36.2921 84.3181 36.3243 84.492 36.3243H85.012V37.0303H84.3434C83.9616 37.0303 83.6699 36.9412 83.4668 36.7628C83.2636 36.5844 83.1621 36.2946 83.1621 35.8933V33.6266H82.6788V32.9354H83.1621V31.9172H84.0162V32.9354H85.012V33.6266H84.0162ZM86.2233 32.3929C86.07 32.3929 85.9411 32.3409 85.8368 32.2368C85.7332 32.1328 85.6814 32.004 85.6814 31.8504C85.6814 31.6967 85.7332 31.5679 85.8368 31.4639C85.9411 31.3599 86.07 31.3078 86.2233 31.3078C86.3719 31.3078 86.4987 31.3599 86.6023 31.4639C86.7066 31.5679 86.7584 31.6967 86.7584 31.8504C86.7584 32.004 86.7066 32.1328 86.6023 32.2368C86.4987 32.3409 86.3719 32.3929 86.2233 32.3929ZM86.6398 32.9354V37.0303H85.7925V32.9354H86.6398ZM89.5273 37.0972C89.1408 37.0972 88.7918 37.0105 88.4796 36.8371C88.1674 36.6587 87.9227 36.411 87.7441 36.0939C87.5662 35.7719 87.4769 35.4003 87.4769 34.9791C87.4769 34.563 87.5682 34.1938 87.7516 33.8718C87.935 33.5498 88.1851 33.302 88.5021 33.1286C88.8191 32.9552 89.1735 32.8685 89.5648 32.8685C89.956 32.8685 90.3098 32.9552 90.6268 33.1286C90.9438 33.302 91.1939 33.5498 91.3773 33.8718C91.5606 34.1938 91.6527 34.563 91.6527 34.9791C91.6527 35.3953 91.5586 35.7645 91.3698 36.0865C91.1816 36.4085 90.924 36.6587 90.5975 36.8371C90.2751 37.0105 89.9186 37.0972 89.5273 37.0972ZM89.5273 36.3615C89.7454 36.3615 89.9485 36.3094 90.1367 36.2054C90.3296 36.1014 90.4857 35.9453 90.605 35.7372C90.7236 35.5291 90.7829 35.2764 90.7829 34.9791C90.7829 34.6819 90.7263 34.4317 90.6125 34.2285C90.4979 34.0204 90.3473 33.8644 90.1592 33.7603C89.971 33.6563 89.7679 33.6043 89.5498 33.6043C89.3317 33.6043 89.1285 33.6563 88.9404 33.7603C88.757 33.8644 88.6112 34.0204 88.5021 34.2285C88.393 34.4317 88.3385 34.6819 88.3385 34.9791C88.3385 35.4201 88.4503 35.7619 88.6732 36.0047C88.9008 36.2426 89.1858 36.3615 89.5273 36.3615ZM94.5551 32.8685C94.8775 32.8685 95.1645 32.9354 95.4174 33.0692C95.6744 33.2029 95.8755 33.4012 96.0186 33.6637C96.1624 33.9263 96.2347 34.2434 96.2347 34.615V37.0303H95.3949V34.7413C95.3949 34.3747 95.3029 34.0948 95.1202 33.9015C94.9368 33.7033 94.6867 33.6043 94.3697 33.6043C94.0527 33.6043 93.7999 33.7033 93.6117 33.9015C93.4284 34.0948 93.337 34.3747 93.337 34.7413V37.0303H92.4897V32.9354H93.337V33.4036C93.4754 33.2351 93.6513 33.1039 93.8639 33.0097C94.0821 32.9156 94.3125 32.8685 94.5551 32.8685ZM102.581 31.8652V32.5564H101.207V37.0303H100.359V32.5564H98.9776V31.8652H102.581ZM107.191 34.8825C107.191 35.0361 107.181 35.1748 107.161 35.2987H104.033C104.058 35.6257 104.179 35.8883 104.397 36.0865C104.615 36.2847 104.883 36.3838 105.2 36.3838C105.655 36.3838 105.977 36.193 106.166 35.8115H107.08C106.956 36.1881 106.73 36.4977 106.404 36.7405C106.081 36.9783 105.68 37.0972 105.2 37.0972C104.808 37.0972 104.457 37.0105 104.145 36.8371C103.838 36.6587 103.594 36.411 103.417 36.0939C103.243 35.7719 103.156 35.4003 103.156 34.9791C103.156 34.558 103.241 34.1889 103.409 33.8718C103.582 33.5498 103.823 33.302 104.13 33.1286C104.442 32.9552 104.798 32.8685 105.2 32.8685C105.586 32.8685 105.93 32.9527 106.232 33.1212C106.534 33.2897 106.77 33.5275 106.938 33.8346C107.107 34.1369 107.191 34.4862 107.191 34.8825ZM106.307 34.615C106.302 34.3029 106.19 34.0526 105.972 33.8644C105.755 33.6761 105.485 33.582 105.162 33.582C104.87 33.582 104.62 33.6761 104.412 33.8644C104.204 34.0477 104.08 34.2979 104.04 34.615H106.307ZM107.742 34.9791C107.742 34.558 107.826 34.1889 107.994 33.8718C108.168 33.5498 108.406 33.302 108.708 33.1286C109.01 32.9552 109.357 32.8685 109.748 32.8685C110.243 32.8685 110.652 32.9874 110.974 33.2252C111.301 33.4581 111.521 33.7925 111.635 34.2285H110.722C110.647 34.0254 110.528 33.8668 110.365 33.7529C110.202 33.639 109.996 33.582 109.748 33.582C109.401 33.582 109.124 33.7059 108.916 33.9536C108.713 34.1964 108.611 34.5382 108.611 34.9791C108.611 35.4201 108.713 35.7645 108.916 36.0122C109.124 36.2599 109.401 36.3838 109.748 36.3838C110.238 36.3838 110.563 36.1682 110.722 35.7372H111.635C111.517 36.1534 111.294 36.4854 110.966 36.7331C110.64 36.9759 110.234 37.0972 109.748 37.0972C109.357 37.0972 109.01 37.0105 108.708 36.8371C108.406 36.6587 108.168 36.411 107.994 36.0939C107.826 35.7719 107.742 35.4003 107.742 34.9791ZM114.597 32.8685C114.909 32.8685 115.187 32.9354 115.429 33.0692C115.677 33.2029 115.87 33.4012 116.009 33.6637C116.152 33.9263 116.224 34.2434 116.224 34.615V37.0303H115.385V34.7413C115.385 34.3747 115.293 34.0948 115.11 33.9015C114.926 33.7033 114.676 33.6043 114.359 33.6043C114.042 33.6043 113.79 33.7033 113.602 33.9015C113.418 34.0948 113.326 34.3747 113.326 34.7413V37.0303H112.48V31.5308H113.326V33.411C113.47 33.2376 113.651 33.1039 113.869 33.0097C114.092 32.9156 114.334 32.8685 114.597 32.8685ZM119.37 32.8685C119.692 32.8685 119.979 32.9354 120.232 33.0692C120.49 33.2029 120.69 33.4012 120.834 33.6637C120.977 33.9263 121.049 34.2434 121.049 34.615V37.0303H120.21V34.7413C120.21 34.3747 120.118 34.0948 119.935 33.9015C119.752 33.7033 119.501 33.6043 119.184 33.6043C118.867 33.6043 118.615 33.7033 118.426 33.9015C118.243 34.0948 118.152 34.3747 118.152 34.7413V37.0303H117.304V32.9354H118.152V33.4036C118.29 33.2351 118.466 33.1039 118.679 33.0097C118.897 32.9156 119.127 32.8685 119.37 32.8685ZM123.906 37.0972C123.519 37.0972 123.17 37.0105 122.858 36.8371C122.546 36.6587 122.301 36.411 122.122 36.0939C121.944 35.7719 121.855 35.4003 121.855 34.9791C121.855 34.563 121.946 34.1938 122.13 33.8718C122.313 33.5498 122.563 33.302 122.88 33.1286C123.197 32.9552 123.551 32.8685 123.942 32.8685C124.334 32.8685 124.688 32.9552 125.005 33.1286C125.322 33.302 125.572 33.5498 125.756 33.8718C125.939 34.1938 126.03 34.563 126.03 34.9791C126.03 35.3953 125.936 35.7645 125.748 36.0865C125.56 36.4085 125.302 36.6587 124.976 36.8371C124.653 37.0105 124.297 37.0972 123.906 37.0972ZM123.906 36.3615C124.124 36.3615 124.327 36.3094 124.515 36.2054C124.708 36.1014 124.864 35.9453 124.983 35.7372C125.102 35.5291 125.161 35.2764 125.161 34.9791C125.161 34.6819 125.105 34.4317 124.99 34.2285C124.876 34.0204 124.726 33.8644 124.537 33.7603C124.349 33.6563 124.145 33.6043 123.928 33.6043C123.71 33.6043 123.507 33.6563 123.319 33.7603C123.135 33.8644 122.989 34.0204 122.88 34.2285C122.771 34.4317 122.717 34.6819 122.717 34.9791C122.717 35.4201 122.828 35.7619 123.051 36.0047C123.279 36.2426 123.564 36.3615 123.906 36.3615ZM127.715 31.5308V37.0303H126.868V31.5308H127.715ZM130.603 37.0972C130.216 37.0972 129.867 37.0105 129.555 36.8371C129.243 36.6587 128.997 36.411 128.82 36.0939C128.641 35.7719 128.552 35.4003 128.552 34.9791C128.552 34.563 128.644 34.1938 128.827 33.8718C129.01 33.5498 129.261 33.302 129.578 33.1286C129.894 32.9552 130.248 32.8685 130.64 32.8685C131.031 32.8685 131.385 32.9552 131.702 33.1286C132.019 33.302 132.269 33.5498 132.453 33.8718C132.636 34.1938 132.727 34.563 132.727 34.9791C132.727 35.3953 132.633 35.7645 132.445 36.0865C132.257 36.4085 131.999 36.6587 131.672 36.8371C131.35 37.0105 130.994 37.0972 130.603 37.0972ZM130.603 36.3615C130.821 36.3615 131.024 36.3094 131.212 36.2054C131.405 36.1014 131.561 35.9453 131.68 35.7372C131.799 35.5291 131.858 35.2764 131.858 34.9791C131.858 34.6819 131.801 34.4317 131.687 34.2285C131.573 34.0204 131.423 33.8644 131.234 33.7603C131.046 33.6563 130.843 33.6043 130.625 33.6043C130.407 33.6043 130.204 33.6563 130.016 33.7603C129.832 33.8644 129.687 34.0204 129.578 34.2285C129.468 34.4317 129.414 34.6819 129.414 34.9791C129.414 35.4201 129.525 35.7619 129.748 36.0047C129.976 36.2426 130.261 36.3615 130.603 36.3615ZM135.214 32.8685C135.532 32.8685 135.811 32.9329 136.054 33.0617C136.301 33.1856 136.495 33.3417 136.633 33.5299V32.9354H137.488V37.0972C137.488 37.4738 137.409 37.8082 137.25 38.1005C137.092 38.3978 136.862 38.6306 136.559 38.7991C136.262 38.9676 135.905 39.0518 135.489 39.0518C134.935 39.0518 134.474 38.9205 134.107 38.6579C133.741 38.4002 133.532 38.0485 133.483 37.6026H134.322C134.387 37.8157 134.524 37.9866 134.731 38.1154C134.944 38.2491 135.197 38.316 135.489 38.316C135.831 38.316 136.106 38.212 136.314 38.0039C136.527 37.7958 136.633 37.4936 136.633 37.0972V36.4135C136.49 36.6067 136.294 36.7702 136.046 36.904C135.804 37.0328 135.526 37.0972 135.214 37.0972C134.858 37.0972 134.531 37.008 134.234 36.8297C133.941 36.6463 133.708 36.3936 133.535 36.0716C133.367 35.7446 133.282 35.3755 133.282 34.9643C133.282 34.5531 133.367 34.1889 133.535 33.8718C133.708 33.5547 133.941 33.3094 134.234 33.1361C134.531 32.9577 134.858 32.8685 135.214 32.8685ZM136.633 34.9791C136.633 34.6967 136.574 34.4515 136.455 34.2434C136.342 34.0353 136.19 33.8768 136.002 33.7678C135.814 33.6587 135.611 33.6043 135.393 33.6043C135.175 33.6043 134.971 33.6587 134.783 33.7678C134.595 33.8718 134.442 34.0279 134.322 34.236C134.209 34.4391 134.152 34.6819 134.152 34.9643C134.152 35.2467 134.209 35.4944 134.322 35.7075C134.442 35.9205 134.595 36.084 134.783 36.198C134.977 36.307 135.18 36.3615 135.393 36.3615C135.611 36.3615 135.814 36.307 136.002 36.198C136.19 36.0889 136.342 35.9304 136.455 35.7223C136.574 35.5093 136.633 35.2616 136.633 34.9791ZM142.285 32.9354L139.774 38.9552H138.898L139.73 36.9634L138.117 32.9354H139.061L140.213 36.0568L141.409 32.9354H142.285ZM144.572 34.4366C144.572 33.9313 144.689 33.4779 144.922 33.0766C145.159 32.6753 145.479 32.3632 145.88 32.1402C146.287 31.9123 146.73 31.7983 147.21 31.7983C147.76 31.7983 148.248 31.9346 148.674 32.2071C149.105 32.4746 149.417 32.8561 149.61 33.3516H148.592C148.458 33.0791 148.273 32.8759 148.035 32.7422C147.797 32.6084 147.523 32.5415 147.21 32.5415C146.868 32.5415 146.564 32.6183 146.296 32.7719C146.029 32.9255 145.818 33.1459 145.665 33.4333C145.516 33.7207 145.442 34.0551 145.442 34.4366C145.442 34.8181 145.516 35.1525 145.665 35.4399C145.818 35.7273 146.029 35.9503 146.296 36.1088C146.564 36.2624 146.868 36.3392 147.21 36.3392C147.523 36.3392 147.797 36.2723 148.035 36.1385C148.273 36.0047 148.458 35.8016 148.592 35.5291H149.61C149.417 36.0246 149.105 36.4061 148.674 36.6736C148.248 36.9411 147.76 37.0749 147.21 37.0749C146.725 37.0749 146.281 36.9634 145.88 36.7405C145.479 36.5126 145.159 36.198 144.922 35.7967C144.689 35.3953 144.572 34.942 144.572 34.4366ZM152.377 37.0972C151.991 37.0972 151.642 37.0105 151.33 36.8371C151.017 36.6587 150.773 36.411 150.594 36.0939C150.416 35.7719 150.327 35.4003 150.327 34.9791C150.327 34.563 150.418 34.1938 150.602 33.8718C150.785 33.5498 151.035 33.302 151.352 33.1286C151.669 32.9552 152.023 32.8685 152.415 32.8685C152.806 32.8685 153.16 32.9552 153.477 33.1286C153.794 33.302 154.044 33.5498 154.227 33.8718C154.411 34.1938 154.503 34.563 154.503 34.9791C154.503 35.3953 154.408 35.7645 154.22 36.0865C154.032 36.4085 153.774 36.6587 153.447 36.8371C153.125 37.0105 152.769 37.0972 152.377 37.0972ZM152.377 36.3615C152.595 36.3615 152.799 36.3094 152.987 36.2054C153.18 36.1014 153.336 35.9453 153.455 35.7372C153.574 35.5291 153.633 35.2764 153.633 34.9791C153.633 34.6819 153.576 34.4317 153.462 34.2285C153.348 34.0204 153.197 33.8644 153.009 33.7603C152.82 33.6563 152.618 33.6043 152.4 33.6043C152.182 33.6043 151.979 33.6563 151.79 33.7603C151.607 33.8644 151.461 34.0204 151.352 34.2285C151.243 34.4317 151.188 34.6819 151.188 34.9791C151.188 35.4201 151.3 35.7619 151.523 36.0047C151.751 36.2426 152.036 36.3615 152.377 36.3615ZM160.295 32.8685C160.618 32.8685 160.905 32.9354 161.158 33.0692C161.415 33.2029 161.616 33.4012 161.759 33.6637C161.907 33.9263 161.982 34.2434 161.982 34.615V37.0303H161.143V34.7413C161.143 34.3747 161.051 34.0948 160.867 33.9015C160.685 33.7033 160.434 33.6043 160.117 33.6043C159.8 33.6043 159.548 33.7033 159.359 33.9015C159.176 34.0948 159.084 34.3747 159.084 34.7413V37.0303H158.245V34.7413C158.245 34.3747 158.153 34.0948 157.97 33.9015C157.787 33.7033 157.537 33.6043 157.22 33.6043C156.903 33.6043 156.65 33.7033 156.462 33.9015C156.278 34.0948 156.186 34.3747 156.186 34.7413V37.0303H155.34V32.9354H156.186V33.4036C156.325 33.2351 156.501 33.1039 156.714 33.0097C156.927 32.9156 157.155 32.8685 157.398 32.8685C157.725 32.8685 158.017 32.9379 158.274 33.0766C158.532 33.2154 158.73 33.416 158.869 33.6786C158.993 33.4309 159.186 33.2351 159.449 33.0915C159.711 32.9428 159.993 32.8685 160.295 32.8685ZM163.907 33.5374C164.05 33.3491 164.246 33.1905 164.494 33.0617C164.742 32.9329 165.021 32.8685 165.333 32.8685C165.69 32.8685 166.014 32.9577 166.307 33.1361C166.604 33.3094 166.837 33.5547 167.005 33.8718C167.174 34.1889 167.258 34.5531 167.258 34.9643C167.258 35.3755 167.174 35.7446 167.005 36.0716C166.837 36.3936 166.604 36.6463 166.307 36.8297C166.014 37.008 165.69 37.0972 165.333 37.0972C165.021 37.0972 164.744 37.0353 164.501 36.9114C164.258 36.7826 164.061 36.624 163.907 36.4358V38.9775H163.06V32.9354H163.907V33.5374ZM166.396 34.9643C166.396 34.6819 166.337 34.4391 166.217 34.236C166.104 34.0279 165.95 33.8718 165.757 33.7678C165.569 33.6587 165.365 33.6043 165.148 33.6043C164.935 33.6043 164.731 33.6587 164.539 33.7678C164.35 33.8768 164.196 34.0353 164.078 34.2434C163.964 34.4515 163.907 34.6967 163.907 34.9791C163.907 35.2616 163.964 35.5093 164.078 35.7223C164.196 35.9304 164.35 36.0889 164.539 36.198C164.731 36.307 164.935 36.3615 165.148 36.3615C165.365 36.3615 165.569 36.307 165.757 36.198C165.95 36.084 166.104 35.9205 166.217 35.7075C166.337 35.4944 166.396 35.2467 166.396 34.9643ZM167.813 34.9643C167.813 34.5531 167.897 34.1889 168.065 33.8718C168.239 33.5547 168.472 33.3094 168.764 33.1361C169.061 32.9577 169.388 32.8685 169.745 32.8685C170.067 32.8685 170.347 32.9329 170.584 33.0617C170.827 33.1856 171.02 33.3417 171.164 33.5299V32.9354H172.018V37.0303H171.164V36.4209C171.02 36.6142 170.825 36.7752 170.577 36.904C170.329 37.0328 170.047 37.0972 169.73 37.0972C169.378 37.0972 169.057 37.008 168.764 36.8297C168.472 36.6463 168.239 36.3936 168.065 36.0716C167.897 35.7446 167.813 35.3755 167.813 34.9643ZM171.164 34.9791C171.164 34.6967 171.104 34.4515 170.986 34.2434C170.872 34.0353 170.72 33.8768 170.532 33.7678C170.344 33.6587 170.141 33.6043 169.923 33.6043C169.705 33.6043 169.502 33.6587 169.314 33.7678C169.125 33.8718 168.972 34.0279 168.853 34.236C168.74 34.4391 168.682 34.6819 168.682 34.9643C168.682 35.2467 168.74 35.4944 168.853 35.7075C168.972 35.9205 169.125 36.084 169.314 36.198C169.507 36.307 169.71 36.3615 169.923 36.3615C170.141 36.3615 170.344 36.307 170.532 36.198C170.72 36.0889 170.872 35.9304 170.986 35.7223C171.104 35.5093 171.164 35.2616 171.164 34.9791ZM175.196 32.8685C175.519 32.8685 175.806 32.9354 176.058 33.0692C176.316 33.2029 176.516 33.4012 176.66 33.6637C176.804 33.9263 176.876 34.2434 176.876 34.615V37.0303H176.036V34.7413C176.036 34.3747 175.945 34.0948 175.761 33.9015C175.578 33.7033 175.328 33.6043 175.011 33.6043C174.694 33.6043 174.441 33.7033 174.253 33.9015C174.069 34.0948 173.978 34.3747 173.978 34.7413V37.0303H173.131V32.9354H173.978V33.4036C174.116 33.2351 174.292 33.1039 174.506 33.0097C174.724 32.9156 174.953 32.8685 175.196 32.8685ZM181.641 32.9354L179.13 38.9552H178.253L179.086 36.9634L177.473 32.9354H178.417L179.568 36.0568L180.765 32.9354H181.641Z" fill="#ECA713"></path><defs><linearGradient id="paint0_linear_78_612" x1="1.88216" y1="47.6221" x2="30.046" y2="30.6471" gradientUnits="userSpaceOnUse"><stop stop-color="white"></stop><stop offset="0.34" stop-color="#738C79"></stop><stop offset="0.67" stop-color="#738C79"></stop><stop offset="1" stop-color="#111312"></stop></linearGradient><linearGradient id="paint1_linear_78_612" x1="4.7561" y1="40.9003" x2="33.1912" y2="24.9895" gradientUnits="userSpaceOnUse"><stop stop-color="#CCE5D2"></stop><stop offset="0.34" stop-color="#738C79"></stop><stop offset="0.67" stop-color="#738C79"></stop><stop offset="1" stop-color="#111312"></stop></linearGradient><linearGradient id="paint2_linear_78_612" x1="40.7056" y1="-2.1719" x2="40.7056" y2="46.2674" gradientUnits="userSpaceOnUse"><stop stop-color="#ECBE13"></stop><stop offset="0.474" stop-color="#EC9C13"></stop><stop offset="1" stop-color="#EC6A13"></stop></linearGradient><linearGradient id="paint3_linear_78_612" x1="42.25" y1="5.73145" x2="42.25" y2="49.4431" gradientUnits="userSpaceOnUse"><stop stop-color="#F8C300"></stop><stop offset="0.437" stop-color="#F8A008"></stop><stop offset="1" stop-color="#F5680A"></stop></linearGradient><linearGradient id="paint4_linear_78_612" x1="6.51901" y1="-6.16934" x2="6.51901" y2="27.5506" gradientUnits="userSpaceOnUse"><stop stop-color="#ECBE13"></stop><stop offset="0.553" stop-color="#EC9C13"></stop><stop offset="1" stop-color="#EC6A13"></stop></linearGradient><linearGradient id="paint5_linear_78_612" x1="8.20581" y1="6.60897" x2="3.38689" y2="29.8498" gradientUnits="userSpaceOnUse"><stop stop-color="#F8C300"></stop><stop offset="0.458" stop-color="#F8A008"></stop><stop offset="1" stop-color="#F5680A"></stop></linearGradient><linearGradient id="paint6_linear_78_612" x1="2.94649" y1="2.57761" x2="12.9623" y2="31.504" gradientUnits="userSpaceOnUse"><stop stop-color="#ECBE13"></stop><stop offset="0.493" stop-color="#EC9C13"></stop><stop offset="1" stop-color="#EC6A13"></stop></linearGradient><linearGradient id="paint7_linear_78_612" x1="5.03485" y1="-4.64278" x2="7.96061" y2="31.2103" gradientUnits="userSpaceOnUse"><stop stop-color="#ECBE13"></stop><stop offset="0.493" stop-color="#EC9C13"></stop><stop offset="1" stop-color="#EF6C14"></stop></linearGradient><linearGradient id="paint8_linear_78_612" x1="38.6165" y1="-9.52828" x2="38.6165" y2="45.8659" gradientUnits="userSpaceOnUse"><stop stop-color="#ECBE13"></stop><stop offset="0.493" stop-color="#ECAB13"></stop><stop offset="1" stop-color="#EC8E13"></stop></linearGradient><linearGradient id="paint9_linear_78_612" x1="19.5332" y1="7.91146" x2="37.7306" y2="48.4195" gradientUnits="userSpaceOnUse"><stop stop-color="white"></stop><stop offset="0.326" stop-color="#738C79"></stop><stop offset="0.653" stop-color="#738C79"></stop><stop offset="1" stop-color="#111312"></stop></linearGradient><linearGradient id="paint10_linear_78_612" x1="26.8723" y1="16.613" x2="45.7995" y2="47.2668" gradientUnits="userSpaceOnUse"><stop stop-color="#C8DCCD"></stop><stop offset="0.41" stop-color="#738C79"></stop><stop offset="0.741" stop-color="#738C79"></stop><stop offset="1" stop-color="#111312"></stop></linearGradient></defs></svg>