<svg xmlns="http://www.w3.org/2000/svg" width="132" height="38" viewBox="0 0 132 38" fill="none"><path d="M18.5617 15.3977L9.60065 11.9293C9.13751 11.698 9.60093 11.4475 9.89054 11.3512L19.4288 8.17179C19.8142 8.26813 20.585 8.22959 20.585 7.30467C20.585 6.37975 19.4288 6.5339 18.8507 6.72659C17.2128 7.40102 12.9543 9.0389 9.02342 10.1951C5.0925 11.3512 4.30246 13.9526 4.39881 15.1087C4.39881 15.1087 4.39881 15.3977 4.10977 15.3977C3.53169 15.3977 3.53169 15.1087 3.53169 15.1087C2.95361 13.0854 4.97688 11.0622 5.55496 10.7731C6.01742 10.5419 5.55496 10.2914 5.26592 10.1951C4.01314 9.71332 1.27634 8.63425 0.351417 8.17179C-0.573507 7.70932 0.544109 7.20832 1.21853 7.01563C5.07238 5.76313 13.4738 3.02689 16.2485 2.10196C19.0233 1.17704 21.6439 1.52389 22.6074 1.81293C27.0393 3.35446 36.3656 6.55316 38.2155 7.01562C40.0653 7.47808 39.757 7.97908 39.3716 8.17177C33.6872 10.195 22.0293 14.415 20.8732 15.1087C19.717 15.8024 19.1398 15.6868 18.5617 15.3977Z" fill="#0A958B"></path><path fill-rule="evenodd" clip-rule="evenodd" d="M21.162 17.7105C23.9368 17.4793 30.2186 14.3384 33.0126 12.7969C32.1451 15.6873 26.0761 18.8667 19.7172 20.0228C14.6302 20.9478 10.275 22.5278 8.73336 23.2023C6.71009 21.7571 7.57832 15.9763 7.86625 14.5311C8.09215 13.3972 8.25163 13.2786 8.44432 13.375L15.6703 16.8434C16.3447 17.2288 18.3872 17.9418 21.162 17.7105ZM11.9151 20.6008C11.4526 20.1384 11.5297 18.0958 11.6261 17.1324C11.6629 16.6881 12.7814 17.1323 12.7814 17.4214C12.5502 17.4214 12.685 19.9264 12.7814 21.1789C12.5502 21.1789 12.2997 20.0227 12.2033 19.4447L11.9151 20.6008ZM9.09706 15.5413C9.00071 16.5047 8.92351 20.7854 9.38597 21.2478L9.67418 20.0917C9.77053 20.6698 10.2379 21.7572 10.4691 21.7572C10.3728 20.5047 10.1801 16.2655 10.2524 16.1997C10.5414 16.1997 9.13385 15.097 9.09706 15.5413Z" fill="#0A958B"></path><path fill-rule="evenodd" clip-rule="evenodd" d="M34.457 13.085C33.5899 15.1082 28.9075 19.5016 20.5832 20.889C10.1778 22.6232 4.68604 26.0917 4.68604 28.9821C4.68604 31.2944 6.22757 30.3309 6.99834 29.5602C8.05815 28.3077 14.2243 25.8027 21.4503 24.3575C30.6779 22.5119 35.0351 17.4205 34.457 13.085ZM26.0747 20.5996C24.6295 21.0813 21.2767 22.1026 19.4268 22.3338C17.1145 22.6229 11.6228 23.779 8.44336 26.3804C9.79221 25.8023 12.6633 24.6461 13.357 24.6461L11.0447 26.0913C12.4899 25.5133 15.7795 24.2993 17.6294 24.0681C19.9417 23.779 22.8321 22.9119 26.0747 20.5996Z" fill="#0A958B"></path><path fill-rule="evenodd" clip-rule="evenodd" d="M35.0391 17.1318C34.1719 19.1551 29.7786 25.2827 21.4542 26.6701C11.0489 28.4043 5.55713 31.8728 5.55713 34.7632C5.55713 37.0755 7.38771 36.112 8.15848 35.3413C9.21828 34.0888 15.3844 31.8728 22.3214 30.1386C31.4508 27.8562 35.6171 23.2016 35.0391 17.1318ZM26.9458 26.3812C25.1483 27.2483 22.1478 27.8842 20.2979 28.1155C17.9856 28.4045 12.4939 29.5606 9.31445 32.162C10.6633 31.5839 13.5344 30.4278 14.2281 30.4278L11.9158 31.873C12.1829 31.7661 12.513 31.6277 12.8853 31.4715C14.5277 30.7828 16.9925 29.7491 18.5005 29.5606C20.8128 29.2716 24.2812 28.6935 26.9458 26.3812Z" fill="#0A958B"></path><ellipse cx="20.2965" cy="36.0634" rx="4.91366" ry="0.433558" fill="#0A958B"></ellipse><path fill-rule="evenodd" clip-rule="evenodd" d="M5.29072 17.871C5.45755 17.6706 5.5579 17.4129 5.5579 17.1317C5.5579 16.4932 5.04027 15.9756 4.40175 15.9756C3.76322 15.9756 3.24559 16.4932 3.24559 17.1317C3.24559 17.4165 3.34855 17.6772 3.51927 17.8787L2.9565 24.0692C2.9565 24.0692 2.8578 24.9363 4.69073 24.9363C6.52366 24.9363 6.13592 24.0692 6.13592 24.0692L5.29072 17.871Z" fill="#0A958B"></path><mask id="path-7-outside-1_78_658" maskUnits="userSpaceOnUse" x="42.8237" y="3.93359" width="86" height="17" fill="black"><rect fill="white" x="42.8237" y="3.93359" width="86" height="17"></rect><path d="M54.0224 16.3726C54.0224 17.2629 53.9145 17.9643 53.6987 18.4768C53.4964 18.9759 53.1862 19.3536 52.768 19.6099C52.3634 19.8527 51.8508 20.001 51.2303 20.055C50.6234 20.1224 49.9085 20.1562 49.0857 20.1562C48.3168 20.1562 47.6289 20.1359 47.0219 20.0955C46.415 20.055 45.8956 20.0078 45.464 19.9538C44.9649 19.8999 44.5266 19.8324 44.1489 19.7515V18.841C44.4996 18.8815 44.9042 18.922 45.3629 18.9624C45.754 18.9894 46.2261 19.0164 46.7791 19.0434C47.3322 19.0703 47.9594 19.0838 48.6608 19.0838C49.4566 19.0838 50.1175 19.0703 50.6436 19.0434C51.1831 19.0164 51.608 18.922 51.9182 18.7601C52.242 18.5847 52.4645 18.315 52.5859 17.9508C52.7208 17.5731 52.7883 17.0471 52.7883 16.3726C52.7883 15.8061 52.7748 15.3543 52.7478 15.017C52.7343 14.6798 52.6601 14.4168 52.5252 14.228C52.3903 14.0256 52.1745 13.8773 51.8778 13.7829C51.5945 13.6884 51.1899 13.594 50.6638 13.4996L47.3659 12.9533C46.5701 12.8184 45.9563 12.6498 45.5247 12.4475C45.0931 12.2452 44.7761 11.9956 44.5738 11.6989C44.3849 11.4021 44.2703 11.0649 44.2298 10.6873C44.2028 10.2961 44.1894 9.85771 44.1894 9.37212C44.1894 8.57631 44.2973 7.94909 44.5131 7.49048C44.7424 7.03188 45.0594 6.68792 45.464 6.45862C45.8687 6.22931 46.3543 6.08768 46.9208 6.03373C47.4873 5.96629 48.1212 5.93257 48.8226 5.93257C49.551 5.93257 50.1985 5.9528 50.765 5.99326C51.3315 6.03373 51.8171 6.08094 52.2217 6.13489C52.6803 6.18885 53.0917 6.25629 53.4559 6.33722V7.26792C53.1322 7.22746 52.7545 7.18699 52.3229 7.14653C51.9587 7.11955 51.5203 7.09257 51.0078 7.0656C50.4952 7.03862 49.9152 7.02513 49.2678 7.02513C48.5394 7.02513 47.9257 7.03862 47.4266 7.0656C46.941 7.09257 46.5498 7.18025 46.2531 7.32862C45.9563 7.46351 45.7405 7.69281 45.6056 8.01653C45.4842 8.34026 45.4236 8.79212 45.4236 9.37212C45.4236 9.84422 45.4303 10.2219 45.4438 10.5052C45.4708 10.7884 45.5517 11.0177 45.6866 11.1931C45.8215 11.3684 46.0305 11.5033 46.3138 11.5977C46.597 11.6787 47.0017 11.7663 47.5278 11.8607L50.8459 12.407C51.6417 12.5419 52.2555 12.7173 52.6871 12.9331C53.1187 13.1489 53.429 13.4187 53.6178 13.7424C53.8201 14.0526 53.9348 14.4236 53.9618 14.8552C54.0022 15.2868 54.0224 15.7926 54.0224 16.3726ZM64.4834 19.7515C64.1732 19.8324 63.8157 19.8999 63.4111 19.9538C63.0604 20.0078 62.6422 20.055 62.1566 20.0955C61.671 20.1359 61.1248 20.1562 60.5178 20.1562C59.5736 20.1562 58.8385 20.0752 58.3124 19.9134C57.7864 19.7515 57.3885 19.475 57.1187 19.0838C56.8624 18.6792 56.7005 18.1464 56.6331 17.4854C56.5791 16.8245 56.5522 15.9882 56.5522 14.9766C56.5522 13.9245 56.5859 13.0545 56.6533 12.3666C56.7343 11.6787 56.9096 11.1324 57.1794 10.7277C57.4492 10.3096 57.8403 10.0196 58.3529 9.85771C58.8654 9.69585 59.5668 9.61492 60.4571 9.61492C61.0641 9.61492 61.6036 9.63515 62.0757 9.67562C62.5613 9.71608 62.9727 9.76329 63.3099 9.81724C63.7011 9.8712 64.0518 9.93864 64.362 10.0196V10.8491C64.0922 10.8086 63.782 10.7682 63.4313 10.7277C63.1211 10.7007 62.7569 10.6738 62.3387 10.6468C61.9206 10.6198 61.4417 10.6063 60.9022 10.6063C60.1603 10.6063 59.5803 10.6333 59.1622 10.6873C58.744 10.7277 58.4271 10.8828 58.2112 11.1526C58.0089 11.4224 57.8808 11.854 57.8268 12.4475C57.7864 13.041 57.7661 13.884 57.7661 14.9766C57.7661 16.0152 57.7864 16.8178 57.8268 17.3843C57.8673 17.9508 57.9887 18.3689 58.191 18.6387C58.3933 18.895 58.7103 19.0434 59.142 19.0838C59.5736 19.1243 60.1873 19.1445 60.9831 19.1445C61.5227 19.1445 62.0083 19.1378 62.4399 19.1243C62.8715 19.0973 63.2424 19.0703 63.5527 19.0434C63.9034 19.0029 64.2136 18.9624 64.4834 18.922V19.7515ZM74.3193 19.9336V13.1961C74.3193 12.5487 74.2586 12.0496 74.1372 11.6989C74.0293 11.3482 73.854 11.0919 73.6112 10.93C73.3819 10.7682 73.0784 10.6738 72.7007 10.6468C72.3365 10.6198 71.8914 10.6063 71.3653 10.6063C70.8933 10.6063 70.4751 10.6198 70.1109 10.6468C69.7467 10.6603 69.4365 10.6805 69.1802 10.7075C68.8835 10.7479 68.6204 10.7817 68.3911 10.8086V19.9336H67.1772V5.26489H68.3911V9.77678C68.6204 9.7498 68.8835 9.72282 69.1802 9.69585C69.4365 9.66887 69.7467 9.64864 70.1109 9.63515C70.4751 9.62166 70.8933 9.61492 71.3653 9.61492C72.0128 9.61492 72.5928 9.64864 73.1054 9.71608C73.6179 9.77003 74.0496 9.91841 74.4003 10.1612C74.7644 10.3905 75.041 10.7479 75.2298 11.2335C75.4186 11.7056 75.5131 12.3598 75.5131 13.1961V19.9336H74.3193ZM87.4228 14.9766C87.4228 16.1096 87.3824 17.0201 87.3014 17.708C87.2205 18.3824 87.0317 18.9017 86.7349 19.2659C86.4382 19.6301 85.9931 19.8662 85.3996 19.9741C84.8196 20.0955 84.0305 20.1562 83.0323 20.1562C82.0207 20.1562 81.2181 20.0955 80.6247 19.9741C80.0446 19.8662 79.6063 19.6301 79.3095 19.2659C79.0128 18.9017 78.8239 18.3824 78.743 17.708C78.6621 17.0201 78.6216 16.1096 78.6216 14.9766C78.6216 13.8031 78.6688 12.8656 78.7632 12.1642C78.8577 11.4493 79.06 10.9098 79.3702 10.5456C79.6805 10.1679 80.1256 9.91841 80.7056 9.79701C81.2856 9.67561 82.0612 9.61492 83.0323 9.61492C83.99 9.61492 84.7521 9.67561 85.3186 9.79701C85.8986 9.91841 86.3438 10.1679 86.654 10.5456C86.9642 10.9098 87.1666 11.4493 87.261 12.1642C87.3689 12.8656 87.4228 13.8031 87.4228 14.9766ZM86.2089 14.8754C86.2089 13.8098 86.1819 12.987 86.1279 12.407C86.074 11.827 85.9391 11.4089 85.7233 11.1526C85.521 10.8828 85.2107 10.7277 84.7926 10.6873C84.3879 10.6333 83.8282 10.6063 83.1133 10.6063H82.9312C82.2163 10.6063 81.6498 10.6333 81.2316 10.6873C80.827 10.7277 80.5167 10.8828 80.3009 11.1526C80.0986 11.4089 79.9705 11.827 79.9165 12.407C79.8626 12.987 79.8356 13.8098 79.8356 14.8754V15.0575C79.8356 16.0826 79.8558 16.8717 79.8963 17.4247C79.9367 17.9778 80.0514 18.3824 80.2402 18.6387C80.4426 18.895 80.7528 19.0434 81.1709 19.0838C81.5891 19.1243 82.1758 19.1445 82.9312 19.1445H83.1133C83.8551 19.1445 84.4351 19.1243 84.8533 19.0838C85.2714 19.0434 85.5817 18.895 85.784 18.6387C85.9863 18.3824 86.1077 17.9778 86.1482 17.4247C86.1886 16.8717 86.2089 16.0826 86.2089 15.0575V14.8754ZM99.0898 14.9766C99.0898 16.1096 99.0494 17.0201 98.9684 17.708C98.8875 18.3824 98.6987 18.9017 98.4019 19.2659C98.1052 19.6301 97.6601 19.8662 97.0666 19.9741C96.4866 20.0955 95.6975 20.1562 94.6993 20.1562C93.6877 20.1562 92.8851 20.0955 92.2916 19.9741C91.7116 19.8662 91.2733 19.6301 90.9765 19.2659C90.6798 18.9017 90.4909 18.3824 90.41 17.708C90.3291 17.0201 90.2886 16.1096 90.2886 14.9766C90.2886 13.8031 90.3358 12.8656 90.4302 12.1642C90.5247 11.4493 90.727 10.9098 91.0372 10.5456C91.3475 10.1679 91.7926 9.91841 92.3726 9.79701C92.9526 9.67561 93.7282 9.61492 94.6993 9.61492C95.657 9.61492 96.4191 9.67561 96.9856 9.79701C97.5656 9.91841 98.0108 10.1679 98.321 10.5456C98.6312 10.9098 98.8336 11.4493 98.928 12.1642C99.0359 12.8656 99.0898 13.8031 99.0898 14.9766ZM97.8759 14.8754C97.8759 13.8098 97.8489 12.987 97.7949 12.407C97.741 11.827 97.6061 11.4089 97.3903 11.1526C97.188 10.8828 96.8777 10.7277 96.4596 10.6873C96.0549 10.6333 95.4952 10.6063 94.7803 10.6063H94.5982C93.8833 10.6063 93.3168 10.6333 92.8986 10.6873C92.494 10.7277 92.1837 10.8828 91.9679 11.1526C91.7656 11.4089 91.6375 11.827 91.5835 12.407C91.5296 12.987 91.5026 13.8098 91.5026 14.8754V15.0575C91.5026 16.0826 91.5228 16.8717 91.5633 17.4247C91.6037 17.9778 91.7184 18.3824 91.9072 18.6387C92.1096 18.895 92.4198 19.0434 92.8379 19.0838C93.2561 19.1243 93.8428 19.1445 94.5982 19.1445H94.7803C95.5221 19.1445 96.1021 19.1243 96.5203 19.0838C96.9384 19.0434 97.2487 18.895 97.451 18.6387C97.6533 18.3824 97.7747 17.9778 97.8152 17.4247C97.8556 16.8717 97.8759 16.0826 97.8759 15.0575V14.8754ZM107.985 19.9336H106.225L101.005 6.17536H102.279L107.095 18.8208L111.91 6.17536H113.205L107.985 19.9336ZM115.347 19.9336V9.83748H116.561V19.9336H115.347ZM115.347 7.75351V5.26489H116.561V7.75351H115.347ZM128.217 19.7515C127.893 19.8324 127.515 19.8999 127.084 19.9538C126.72 20.0078 126.268 20.055 125.728 20.0955C125.202 20.1359 124.609 20.1562 123.948 20.1562C123.395 20.1562 122.862 20.1359 122.349 20.0955C121.837 20.0685 121.378 19.9606 120.974 19.7717C120.582 19.5694 120.265 19.2592 120.023 18.841C119.78 18.4094 119.658 17.7957 119.658 16.9999C119.658 16.2445 119.753 15.6645 119.942 15.2598C120.144 14.8552 120.421 14.5584 120.771 14.3696C121.135 14.1808 121.56 14.0729 122.046 14.0459C122.531 14.0054 123.064 13.9852 123.644 13.9852H127.023V13.1961C127.023 12.5487 126.962 12.0496 126.841 11.6989C126.733 11.3347 126.551 11.0717 126.295 10.9098C126.038 10.7479 125.701 10.6535 125.283 10.6266C124.878 10.5996 124.386 10.5861 123.806 10.5861C123.24 10.5861 122.741 10.6063 122.309 10.6468C121.891 10.6738 121.527 10.7007 121.216 10.7277C120.866 10.7682 120.549 10.8086 120.265 10.8491V10.0196C120.576 9.93864 120.933 9.8712 121.338 9.81724C121.688 9.76329 122.107 9.71608 122.592 9.67562C123.078 9.63515 123.631 9.61492 124.251 9.61492C124.845 9.61492 125.384 9.64864 125.87 9.71608C126.355 9.77003 126.774 9.91841 127.124 10.1612C127.475 10.3905 127.745 10.7479 127.934 11.2335C128.122 11.7056 128.217 12.3598 128.217 13.1961V19.7515ZM127.023 14.9361H123.644C123.091 14.9361 122.633 14.9496 122.268 14.9766C121.918 14.9901 121.634 15.0643 121.419 15.1991C121.216 15.3205 121.075 15.5229 120.994 15.8061C120.913 16.0894 120.872 16.4873 120.872 16.9999C120.872 17.5529 120.926 17.9778 121.034 18.2745C121.156 18.5578 121.338 18.7736 121.581 18.922C121.837 19.0568 122.161 19.1378 122.552 19.1648C122.943 19.1782 123.408 19.185 123.948 19.185C124.42 19.185 124.845 19.1782 125.222 19.1648C125.6 19.1513 125.924 19.131 126.194 19.1041C126.504 19.0771 126.78 19.0434 127.023 19.0029V14.9361Z"></path></mask><path d="M54.0224 16.3726C54.0224 17.2629 53.9145 17.9643 53.6987 18.4768C53.4964 18.9759 53.1862 19.3536 52.768 19.6099C52.3634 19.8527 51.8508 20.001 51.2303 20.055C50.6234 20.1224 49.9085 20.1562 49.0857 20.1562C48.3168 20.1562 47.6289 20.1359 47.0219 20.0955C46.415 20.055 45.8956 20.0078 45.464 19.9538C44.9649 19.8999 44.5266 19.8324 44.1489 19.7515V18.841C44.4996 18.8815 44.9042 18.922 45.3629 18.9624C45.754 18.9894 46.2261 19.0164 46.7791 19.0434C47.3322 19.0703 47.9594 19.0838 48.6608 19.0838C49.4566 19.0838 50.1175 19.0703 50.6436 19.0434C51.1831 19.0164 51.608 18.922 51.9182 18.7601C52.242 18.5847 52.4645 18.315 52.5859 17.9508C52.7208 17.5731 52.7883 17.0471 52.7883 16.3726C52.7883 15.8061 52.7748 15.3543 52.7478 15.017C52.7343 14.6798 52.6601 14.4168 52.5252 14.228C52.3903 14.0256 52.1745 13.8773 51.8778 13.7829C51.5945 13.6884 51.1899 13.594 50.6638 13.4996L47.3659 12.9533C46.5701 12.8184 45.9563 12.6498 45.5247 12.4475C45.0931 12.2452 44.7761 11.9956 44.5738 11.6989C44.3849 11.4021 44.2703 11.0649 44.2298 10.6873C44.2028 10.2961 44.1894 9.85771 44.1894 9.37212C44.1894 8.57631 44.2973 7.94909 44.5131 7.49048C44.7424 7.03188 45.0594 6.68792 45.464 6.45862C45.8687 6.22931 46.3543 6.08768 46.9208 6.03373C47.4873 5.96629 48.1212 5.93257 48.8226 5.93257C49.551 5.93257 50.1985 5.9528 50.765 5.99326C51.3315 6.03373 51.8171 6.08094 52.2217 6.13489C52.6803 6.18885 53.0917 6.25629 53.4559 6.33722V7.26792C53.1322 7.22746 52.7545 7.18699 52.3229 7.14653C51.9587 7.11955 51.5203 7.09257 51.0078 7.0656C50.4952 7.03862 49.9152 7.02513 49.2678 7.02513C48.5394 7.02513 47.9257 7.03862 47.4266 7.0656C46.941 7.09257 46.5498 7.18025 46.2531 7.32862C45.9563 7.46351 45.7405 7.69281 45.6056 8.01653C45.4842 8.34026 45.4236 8.79212 45.4236 9.37212C45.4236 9.84422 45.4303 10.2219 45.4438 10.5052C45.4708 10.7884 45.5517 11.0177 45.6866 11.1931C45.8215 11.3684 46.0305 11.5033 46.3138 11.5977C46.597 11.6787 47.0017 11.7663 47.5278 11.8607L50.8459 12.407C51.6417 12.5419 52.2555 12.7173 52.6871 12.9331C53.1187 13.1489 53.429 13.4187 53.6178 13.7424C53.8201 14.0526 53.9348 14.4236 53.9618 14.8552C54.0022 15.2868 54.0224 15.7926 54.0224 16.3726ZM64.4834 19.7515C64.1732 19.8324 63.8157 19.8999 63.4111 19.9538C63.0604 20.0078 62.6422 20.055 62.1566 20.0955C61.671 20.1359 61.1248 20.1562 60.5178 20.1562C59.5736 20.1562 58.8385 20.0752 58.3124 19.9134C57.7864 19.7515 57.3885 19.475 57.1187 19.0838C56.8624 18.6792 56.7005 18.1464 56.6331 17.4854C56.5791 16.8245 56.5522 15.9882 56.5522 14.9766C56.5522 13.9245 56.5859 13.0545 56.6533 12.3666C56.7343 11.6787 56.9096 11.1324 57.1794 10.7277C57.4492 10.3096 57.8403 10.0196 58.3529 9.85771C58.8654 9.69585 59.5668 9.61492 60.4571 9.61492C61.0641 9.61492 61.6036 9.63515 62.0757 9.67562C62.5613 9.71608 62.9727 9.76329 63.3099 9.81724C63.7011 9.8712 64.0518 9.93864 64.362 10.0196V10.8491C64.0922 10.8086 63.782 10.7682 63.4313 10.7277C63.1211 10.7007 62.7569 10.6738 62.3387 10.6468C61.9206 10.6198 61.4417 10.6063 60.9022 10.6063C60.1603 10.6063 59.5803 10.6333 59.1622 10.6873C58.744 10.7277 58.4271 10.8828 58.2112 11.1526C58.0089 11.4224 57.8808 11.854 57.8268 12.4475C57.7864 13.041 57.7661 13.884 57.7661 14.9766C57.7661 16.0152 57.7864 16.8178 57.8268 17.3843C57.8673 17.9508 57.9887 18.3689 58.191 18.6387C58.3933 18.895 58.7103 19.0434 59.142 19.0838C59.5736 19.1243 60.1873 19.1445 60.9831 19.1445C61.5227 19.1445 62.0083 19.1378 62.4399 19.1243C62.8715 19.0973 63.2424 19.0703 63.5527 19.0434C63.9034 19.0029 64.2136 18.9624 64.4834 18.922V19.7515ZM74.3193 19.9336V13.1961C74.3193 12.5487 74.2586 12.0496 74.1372 11.6989C74.0293 11.3482 73.854 11.0919 73.6112 10.93C73.3819 10.7682 73.0784 10.6738 72.7007 10.6468C72.3365 10.6198 71.8914 10.6063 71.3653 10.6063C70.8933 10.6063 70.4751 10.6198 70.1109 10.6468C69.7467 10.6603 69.4365 10.6805 69.1802 10.7075C68.8835 10.7479 68.6204 10.7817 68.3911 10.8086V19.9336H67.1772V5.26489H68.3911V9.77678C68.6204 9.7498 68.8835 9.72282 69.1802 9.69585C69.4365 9.66887 69.7467 9.64864 70.1109 9.63515C70.4751 9.62166 70.8933 9.61492 71.3653 9.61492C72.0128 9.61492 72.5928 9.64864 73.1054 9.71608C73.6179 9.77003 74.0496 9.91841 74.4003 10.1612C74.7644 10.3905 75.041 10.7479 75.2298 11.2335C75.4186 11.7056 75.5131 12.3598 75.5131 13.1961V19.9336H74.3193ZM87.4228 14.9766C87.4228 16.1096 87.3824 17.0201 87.3014 17.708C87.2205 18.3824 87.0317 18.9017 86.7349 19.2659C86.4382 19.6301 85.9931 19.8662 85.3996 19.9741C84.8196 20.0955 84.0305 20.1562 83.0323 20.1562C82.0207 20.1562 81.2181 20.0955 80.6247 19.9741C80.0446 19.8662 79.6063 19.6301 79.3095 19.2659C79.0128 18.9017 78.8239 18.3824 78.743 17.708C78.6621 17.0201 78.6216 16.1096 78.6216 14.9766C78.6216 13.8031 78.6688 12.8656 78.7632 12.1642C78.8577 11.4493 79.06 10.9098 79.3702 10.5456C79.6805 10.1679 80.1256 9.91841 80.7056 9.79701C81.2856 9.67561 82.0612 9.61492 83.0323 9.61492C83.99 9.61492 84.7521 9.67561 85.3186 9.79701C85.8986 9.91841 86.3438 10.1679 86.654 10.5456C86.9642 10.9098 87.1666 11.4493 87.261 12.1642C87.3689 12.8656 87.4228 13.8031 87.4228 14.9766ZM86.2089 14.8754C86.2089 13.8098 86.1819 12.987 86.1279 12.407C86.074 11.827 85.9391 11.4089 85.7233 11.1526C85.521 10.8828 85.2107 10.7277 84.7926 10.6873C84.3879 10.6333 83.8282 10.6063 83.1133 10.6063H82.9312C82.2163 10.6063 81.6498 10.6333 81.2316 10.6873C80.827 10.7277 80.5167 10.8828 80.3009 11.1526C80.0986 11.4089 79.9705 11.827 79.9165 12.407C79.8626 12.987 79.8356 13.8098 79.8356 14.8754V15.0575C79.8356 16.0826 79.8558 16.8717 79.8963 17.4247C79.9367 17.9778 80.0514 18.3824 80.2402 18.6387C80.4426 18.895 80.7528 19.0434 81.1709 19.0838C81.5891 19.1243 82.1758 19.1445 82.9312 19.1445H83.1133C83.8551 19.1445 84.4351 19.1243 84.8533 19.0838C85.2714 19.0434 85.5817 18.895 85.784 18.6387C85.9863 18.3824 86.1077 17.9778 86.1482 17.4247C86.1886 16.8717 86.2089 16.0826 86.2089 15.0575V14.8754ZM99.0898 14.9766C99.0898 16.1096 99.0494 17.0201 98.9684 17.708C98.8875 18.3824 98.6987 18.9017 98.4019 19.2659C98.1052 19.6301 97.6601 19.8662 97.0666 19.9741C96.4866 20.0955 95.6975 20.1562 94.6993 20.1562C93.6877 20.1562 92.8851 20.0955 92.2916 19.9741C91.7116 19.8662 91.2733 19.6301 90.9765 19.2659C90.6798 18.9017 90.4909 18.3824 90.41 17.708C90.3291 17.0201 90.2886 16.1096 90.2886 14.9766C90.2886 13.8031 90.3358 12.8656 90.4302 12.1642C90.5247 11.4493 90.727 10.9098 91.0372 10.5456C91.3475 10.1679 91.7926 9.91841 92.3726 9.79701C92.9526 9.67561 93.7282 9.61492 94.6993 9.61492C95.657 9.61492 96.4191 9.67561 96.9856 9.79701C97.5656 9.91841 98.0108 10.1679 98.321 10.5456C98.6312 10.9098 98.8336 11.4493 98.928 12.1642C99.0359 12.8656 99.0898 13.8031 99.0898 14.9766ZM97.8759 14.8754C97.8759 13.8098 97.8489 12.987 97.7949 12.407C97.741 11.827 97.6061 11.4089 97.3903 11.1526C97.188 10.8828 96.8777 10.7277 96.4596 10.6873C96.0549 10.6333 95.4952 10.6063 94.7803 10.6063H94.5982C93.8833 10.6063 93.3168 10.6333 92.8986 10.6873C92.494 10.7277 92.1837 10.8828 91.9679 11.1526C91.7656 11.4089 91.6375 11.827 91.5835 12.407C91.5296 12.987 91.5026 13.8098 91.5026 14.8754V15.0575C91.5026 16.0826 91.5228 16.8717 91.5633 17.4247C91.6037 17.9778 91.7184 18.3824 91.9072 18.6387C92.1096 18.895 92.4198 19.0434 92.8379 19.0838C93.2561 19.1243 93.8428 19.1445 94.5982 19.1445H94.7803C95.5221 19.1445 96.1021 19.1243 96.5203 19.0838C96.9384 19.0434 97.2487 18.895 97.451 18.6387C97.6533 18.3824 97.7747 17.9778 97.8152 17.4247C97.8556 16.8717 97.8759 16.0826 97.8759 15.0575V14.8754ZM107.985 19.9336H106.225L101.005 6.17536H102.279L107.095 18.8208L111.91 6.17536H113.205L107.985 19.9336ZM115.347 19.9336V9.83748H116.561V19.9336H115.347ZM115.347 7.75351V5.26489H116.561V7.75351H115.347ZM128.217 19.7515C127.893 19.8324 127.515 19.8999 127.084 19.9538C126.72 20.0078 126.268 20.055 125.728 20.0955C125.202 20.1359 124.609 20.1562 123.948 20.1562C123.395 20.1562 122.862 20.1359 122.349 20.0955C121.837 20.0685 121.378 19.9606 120.974 19.7717C120.582 19.5694 120.265 19.2592 120.023 18.841C119.78 18.4094 119.658 17.7957 119.658 16.9999C119.658 16.2445 119.753 15.6645 119.942 15.2598C120.144 14.8552 120.421 14.5584 120.771 14.3696C121.135 14.1808 121.56 14.0729 122.046 14.0459C122.531 14.0054 123.064 13.9852 123.644 13.9852H127.023V13.1961C127.023 12.5487 126.962 12.0496 126.841 11.6989C126.733 11.3347 126.551 11.0717 126.295 10.9098C126.038 10.7479 125.701 10.6535 125.283 10.6266C124.878 10.5996 124.386 10.5861 123.806 10.5861C123.24 10.5861 122.741 10.6063 122.309 10.6468C121.891 10.6738 121.527 10.7007 121.216 10.7277C120.866 10.7682 120.549 10.8086 120.265 10.8491V10.0196C120.576 9.93864 120.933 9.8712 121.338 9.81724C121.688 9.76329 122.107 9.71608 122.592 9.67562C123.078 9.63515 123.631 9.61492 124.251 9.61492C124.845 9.61492 125.384 9.64864 125.87 9.71608C126.355 9.77003 126.774 9.91841 127.124 10.1612C127.475 10.3905 127.745 10.7479 127.934 11.2335C128.122 11.7056 128.217 12.3598 128.217 13.1961V19.7515ZM127.023 14.9361H123.644C123.091 14.9361 122.633 14.9496 122.268 14.9766C121.918 14.9901 121.634 15.0643 121.419 15.1991C121.216 15.3205 121.075 15.5229 120.994 15.8061C120.913 16.0894 120.872 16.4873 120.872 16.9999C120.872 17.5529 120.926 17.9778 121.034 18.2745C121.156 18.5578 121.338 18.7736 121.581 18.922C121.837 19.0568 122.161 19.1378 122.552 19.1648C122.943 19.1782 123.408 19.185 123.948 19.185C124.42 19.185 124.845 19.1782 125.222 19.1648C125.6 19.1513 125.924 19.131 126.194 19.1041C126.504 19.0771 126.78 19.0434 127.023 19.0029V14.9361Z" fill="#0A958B"></path><path d="M53.6987 18.4768L53.379 18.3422L53.3773 18.3465L53.6987 18.4768ZM52.768 19.6099L52.9465 19.9073L52.9493 19.9056L52.768 19.6099ZM51.2303 20.055L51.2003 19.7093L51.192 19.7103L51.2303 20.055ZM47.0219 20.0955L46.9989 20.4415L47.0219 20.0955ZM45.464 19.9538L45.507 19.6096L45.5013 19.609L45.464 19.9538ZM44.1489 19.7515H43.802V20.0319L44.0762 20.0906L44.1489 19.7515ZM44.1489 18.841L44.1886 18.4965L43.802 18.4519V18.841H44.1489ZM45.3629 18.9624L45.3324 19.308L45.339 19.3084L45.3629 18.9624ZM46.7791 19.0434L46.7622 19.3898L46.7791 19.0434ZM50.6436 19.0434L50.6263 18.6969L50.6258 18.697L50.6436 19.0434ZM51.9182 18.7601L52.0787 19.0676L52.0834 19.0651L51.9182 18.7601ZM52.5859 17.9508L52.2592 17.8341L52.2569 17.8411L52.5859 17.9508ZM52.7478 15.017L52.4009 15.0309L52.402 15.0447L52.7478 15.017ZM52.5252 14.228L52.2365 14.4205L52.243 14.4296L52.5252 14.228ZM51.8778 13.7829L51.7681 14.1119L51.7726 14.1134L51.8778 13.7829ZM50.6638 13.4996L50.7251 13.1582L50.7205 13.1574L50.6638 13.4996ZM47.3659 12.9533L47.3079 13.2953L47.3092 13.2955L47.3659 12.9533ZM45.5247 12.4475L45.3775 12.7615L45.5247 12.4475ZM44.5738 11.6989L44.281 11.8852L44.2872 11.8943L44.5738 11.6989ZM44.2298 10.6873L43.8835 10.7111L43.8849 10.7242L44.2298 10.6873ZM44.5131 7.49048L44.2028 7.33533L44.1992 7.3428L44.5131 7.49048ZM45.464 6.45862L45.635 6.76038L45.464 6.45862ZM46.9208 6.03373L46.9537 6.37911L46.9618 6.37814L46.9208 6.03373ZM50.765 5.99326L50.7403 6.33923L50.765 5.99326ZM52.2217 6.13489L52.1759 6.47874L52.1812 6.47936L52.2217 6.13489ZM53.4559 6.33722H53.8028V6.05899L53.5312 5.99863L53.4559 6.33722ZM53.4559 7.26792L53.4129 7.61209L53.8028 7.66082V7.26792H53.4559ZM52.3229 7.14653L52.3553 6.80113L52.3485 6.80063L52.3229 7.14653ZM51.0078 7.0656L51.026 6.71923L51.0078 7.0656ZM47.4266 7.0656L47.4079 6.71926L47.4073 6.71928L47.4266 7.0656ZM46.2531 7.32862L46.3967 7.6446L46.4082 7.63885L46.2531 7.32862ZM45.6056 8.01653L45.2853 7.88304L45.2809 7.89475L45.6056 8.01653ZM45.4438 10.5052L45.0973 10.5217L45.0977 10.5299L45.0985 10.538L45.4438 10.5052ZM45.6866 11.1931L45.4117 11.4045H45.4117L45.6866 11.1931ZM46.3138 11.5977L46.2041 11.9268L46.2113 11.9292L46.2185 11.9312L46.3138 11.5977ZM47.5278 11.8607L47.4665 12.2022L47.4714 12.203L47.5278 11.8607ZM50.8459 12.407L50.9039 12.0651L50.9023 12.0648L50.8459 12.407ZM52.6871 12.9331L52.8422 12.6229L52.6871 12.9331ZM53.6178 13.7424L53.3182 13.9172L53.3226 13.9246L53.3273 13.9319L53.6178 13.7424ZM53.9618 14.8552L53.6154 14.8768L53.6164 14.8876L53.9618 14.8552ZM53.6756 16.3726C53.6756 17.2412 53.5694 17.8902 53.3791 18.3422L54.0184 18.6114C54.2597 18.0383 54.3693 17.2846 54.3693 16.3726H53.6756ZM53.3773 18.3465C53.1999 18.784 52.9355 19.1004 52.5868 19.3141L52.9493 19.9056C53.4369 19.6068 53.7929 19.1678 54.0202 18.6072L53.3773 18.3465ZM52.5896 19.3125C52.2421 19.5209 51.7844 19.6587 51.2003 19.7094L51.2604 20.4005C51.9173 20.3434 52.4846 20.1844 52.9465 19.9073L52.5896 19.3125ZM51.192 19.7103C50.6013 19.7759 49.8997 19.8093 49.0857 19.8093V20.503C49.9172 20.503 50.6454 20.469 51.2686 20.3997L51.192 19.7103ZM49.0857 19.8093C48.3226 19.8093 47.6426 19.7892 47.045 19.7494L46.9989 20.4415C47.6152 20.4826 48.311 20.503 49.0857 20.503V19.8093ZM47.045 19.7494C46.4423 19.7092 45.93 19.6625 45.507 19.6097L45.421 20.298C45.8613 20.353 46.3876 20.4008 46.9989 20.4415L47.045 19.7494ZM45.5013 19.609C45.0108 19.556 44.5847 19.4902 44.2216 19.4124L44.0762 20.0906C44.4684 20.1747 44.9191 20.2438 45.4267 20.2987L45.5013 19.609ZM44.4957 19.7515V18.841H43.802V19.7515H44.4957ZM44.1091 19.1856C44.4637 19.2265 44.8715 19.2673 45.3324 19.3079L45.3933 18.6169C44.937 18.5767 44.5355 18.5365 44.1886 18.4965L44.1091 19.1856ZM45.339 19.3084C45.7332 19.3356 46.2078 19.3627 46.7622 19.3898L46.796 18.6969C46.2445 18.67 45.7748 18.6432 45.3867 18.6164L45.339 19.3084ZM46.7622 19.3898C47.3221 19.4171 47.9552 19.4307 48.6608 19.4307V18.737C47.9636 18.737 47.3422 18.7236 46.796 18.6969L46.7622 19.3898ZM48.6608 19.4307C49.4599 19.4307 50.1272 19.4171 50.6614 19.3897L50.6258 18.697C50.1079 18.7235 49.4533 18.737 48.6608 18.737V19.4307ZM50.6609 19.3898C51.2259 19.3615 51.7066 19.2617 52.0787 19.0676L51.7578 18.4526C51.5094 18.5822 51.1403 18.6712 50.6263 18.6969L50.6609 19.3898ZM52.0834 19.0651C52.4882 18.8458 52.767 18.5043 52.915 18.0605L52.2569 17.8411C52.162 18.1257 51.9958 18.3236 51.7531 18.4551L52.0834 19.0651ZM52.9126 18.0674C53.0669 17.6354 53.1351 17.0635 53.1351 16.3726H52.4414C52.4414 17.0306 52.3747 17.5109 52.2593 17.8341L52.9126 18.0674ZM53.1351 16.3726C53.1351 15.8021 53.1216 15.3399 53.0935 14.9894L52.402 15.0447C52.428 15.3687 52.4414 15.8101 52.4414 16.3726H53.1351ZM53.0944 15.0032C53.0793 14.6275 52.9957 14.2899 52.8075 14.0264L52.243 14.4296C52.3246 14.5438 52.3893 14.7321 52.4012 15.0309L53.0944 15.0032ZM52.8138 14.0356C52.6242 13.7512 52.3334 13.5638 51.9829 13.4523L51.7726 14.1134C52.0157 14.1907 52.1564 14.3001 52.2366 14.4204L52.8138 14.0356ZM51.9875 13.4538C51.6807 13.3515 51.2569 13.2537 50.7251 13.1582L50.6025 13.841C51.1228 13.9344 51.5084 14.0253 51.7681 14.1119L51.9875 13.4538ZM50.7205 13.1574L47.4226 12.6111L47.3092 13.2955L50.6071 13.8418L50.7205 13.1574ZM47.4239 12.6113C46.6407 12.4786 46.0623 12.3164 45.6719 12.1334L45.3775 12.7615C45.8504 12.9832 46.4994 13.1582 47.3079 13.2953L47.4239 12.6113ZM45.6719 12.1334C45.2787 11.9491 45.018 11.7348 44.8604 11.5035L44.2872 11.8943C44.5342 12.2565 44.9075 12.5412 45.3775 12.7615L45.6719 12.1334ZM44.8664 11.5127C44.7085 11.2645 44.6099 10.9792 44.5747 10.6503L43.8849 10.7242C43.9306 11.1507 44.0614 11.5398 44.2812 11.8851L44.8664 11.5127ZM44.5758 10.6634C44.5495 10.2818 44.5362 9.85154 44.5362 9.37212H43.8425C43.8425 9.86388 43.8562 10.3104 43.8838 10.7111L44.5758 10.6634ZM44.5362 9.37212C44.5362 8.60129 44.6417 8.0317 44.8269 7.63817L44.1992 7.3428C43.9528 7.86649 43.8425 8.55132 43.8425 9.37212H44.5362ZM44.8233 7.6456C45.0251 7.24204 45.2964 6.95226 45.635 6.76038L45.293 6.15685C44.8223 6.42358 44.4597 6.82171 44.2029 7.33537L44.8233 7.6456ZM45.635 6.76038C45.9888 6.55989 46.4251 6.42935 46.9537 6.37901L46.8879 5.68845C46.2834 5.74602 45.7485 5.89874 45.293 6.15685L45.635 6.76038ZM46.9618 6.37814C47.512 6.31264 48.132 6.27941 48.8226 6.27941V5.58572C48.1105 5.58572 47.4626 5.61994 46.8798 5.68931L46.9618 6.37814ZM48.8226 6.27941C49.5449 6.27941 50.1839 6.29949 50.7403 6.33923L50.7897 5.6473C50.213 5.60611 49.5571 5.58572 48.8226 5.58572V6.27941ZM50.7403 6.33923C51.3022 6.37937 51.7804 6.42596 52.1759 6.4787L52.2676 5.79109C51.8538 5.73592 51.3608 5.68809 50.7897 5.6473L50.7403 6.33923ZM52.1812 6.47936C52.6308 6.53225 53.0303 6.59794 53.3807 6.67581L53.5312 5.99863C53.1532 5.91464 52.7299 5.84544 52.2623 5.79042L52.1812 6.47936ZM53.1091 6.33722V7.26792H53.8028V6.33722H53.1091ZM53.499 6.92376C53.1708 6.88273 52.7894 6.84189 52.3553 6.8012L52.2905 7.49186C52.7197 7.53209 53.0937 7.57219 53.4129 7.61209L53.499 6.92376ZM52.3485 6.80063C51.9811 6.77341 51.5401 6.74629 51.026 6.71923L50.9895 7.41196C51.5005 7.43886 51.9363 7.46569 52.2973 7.49243L52.3485 6.80063ZM51.026 6.71923C50.5061 6.69186 49.9198 6.67829 49.2678 6.67829V7.37198C49.9106 7.37198 50.4844 7.38538 50.9895 7.41196L51.026 6.71923ZM49.2678 6.67829C48.5357 6.67829 47.9153 6.69183 47.4079 6.71926L47.4453 7.41194C47.936 7.38541 48.5431 7.37198 49.2678 7.37198V6.67829ZM47.4073 6.71928C46.8946 6.74777 46.452 6.84137 46.098 7.01839L46.4082 7.63885C46.6477 7.51913 46.9874 7.43738 47.4458 7.41191L47.4073 6.71928ZM46.1096 7.01287C45.7266 7.18693 45.4513 7.4852 45.2855 7.88313L45.9258 8.14994C46.0298 7.90042 46.1861 7.74008 46.3966 7.64438L46.1096 7.01287ZM45.2809 7.89475C45.1383 8.27504 45.0767 8.7748 45.0767 9.37212H45.7704C45.7704 8.80944 45.8302 8.40548 45.9304 8.13832L45.2809 7.89475ZM45.0767 9.37212C45.0767 9.84663 45.0835 10.2305 45.0973 10.5217L45.7902 10.4887C45.7771 10.2133 45.7704 9.84181 45.7704 9.37212H45.0767ZM45.0985 10.538C45.1299 10.8679 45.2271 11.1646 45.4117 11.4045L45.9615 10.9816C45.8763 10.8708 45.8116 10.7089 45.7891 10.4723L45.0985 10.538ZM45.4117 11.4045C45.6011 11.6508 45.8777 11.818 46.2041 11.9268L46.4235 11.2687C46.1834 11.1886 46.0418 11.086 45.9615 10.9816L45.4117 11.4045ZM46.2185 11.9312C46.5185 12.0169 46.9366 12.107 47.4665 12.2021L47.589 11.5194C47.0668 11.4256 46.6756 11.3404 46.4091 11.2642L46.2185 11.9312ZM47.4714 12.203L50.7896 12.7493L50.9023 12.0648L47.5841 11.5185L47.4714 12.203ZM50.788 12.749C51.5694 12.8815 52.1447 13.0497 52.532 13.2433L52.8422 12.6229C52.3662 12.3849 51.714 12.2024 50.9039 12.0651L50.788 12.749ZM52.532 13.2433C52.9205 13.4376 53.1719 13.6663 53.3182 13.9172L53.9174 13.5676C53.6861 13.171 53.317 12.8602 52.8422 12.6229L52.532 13.2433ZM53.3273 13.9319C53.4917 14.184 53.5917 14.4949 53.6156 14.8768L54.3079 14.8336C54.2778 14.3522 54.1485 13.9212 53.9083 13.5529L53.3273 13.9319ZM53.6164 14.8876C53.6556 15.3055 53.6756 15.8001 53.6756 16.3726H54.3693C54.3693 15.7852 54.3488 15.2681 54.3071 14.8228L53.6164 14.8876ZM64.4834 19.7515L64.5709 20.0871L64.8302 20.0195V19.7515H64.4834ZM63.4111 19.9538L63.3652 19.61L63.3583 19.611L63.4111 19.9538ZM62.1566 20.0955L62.1854 20.4411L62.1566 20.0955ZM58.3124 19.9134L58.2104 20.2449L58.3124 19.9134ZM57.1187 19.0838L56.8254 19.2695L56.8332 19.2807L57.1187 19.0838ZM56.6331 17.4854L56.2873 17.5137L56.288 17.5206L56.6331 17.4854ZM56.6533 12.3666L56.3088 12.326L56.3081 12.3327L56.6533 12.3666ZM57.1794 10.7277L57.468 10.9201L57.4708 10.9158L57.1794 10.7277ZM58.3529 9.85771L58.4573 10.1885L58.3529 9.85771ZM62.0757 9.67562L62.0461 10.0212L62.0469 10.0213L62.0757 9.67562ZM63.3099 9.81724L63.2551 10.1598L63.2625 10.1608L63.3099 9.81724ZM64.362 10.0196H64.7088V9.7516L64.4495 9.68396L64.362 10.0196ZM64.362 10.8491L64.3105 11.1921L64.7088 11.2519V10.8491H64.362ZM63.4313 10.7277L63.4711 10.383L63.4613 10.3822L63.4313 10.7277ZM62.3387 10.6468L62.3164 10.9929L62.3387 10.6468ZM59.1622 10.6873L59.1956 11.0327L59.2066 11.0312L59.1622 10.6873ZM58.2112 11.1526L57.9403 10.9358L57.9338 10.9445L58.2112 11.1526ZM57.8268 12.4475L57.4813 12.4161L57.4808 12.4239L57.8268 12.4475ZM57.8268 17.3843L57.4809 17.409L57.8268 17.3843ZM58.191 18.6387L57.9135 18.8469L57.9188 18.8536L58.191 18.6387ZM59.142 19.0838L59.1743 18.7385L59.142 19.0838ZM62.4399 19.1243L62.4507 19.4711L62.4615 19.4705L62.4399 19.1243ZM63.5527 19.0434L63.5827 19.389L63.5924 19.3879L63.5527 19.0434ZM64.4834 18.922H64.8302V18.5192L64.4319 18.579L64.4834 18.922ZM64.3958 19.4159C64.1024 19.4924 63.7594 19.5575 63.3652 19.61L63.4569 20.2976C63.872 20.2423 64.2439 20.1724 64.5709 20.0871L64.3958 19.4159ZM63.3583 19.611C63.0179 19.6634 62.6081 19.7098 62.1278 19.7498L62.1854 20.4411C62.6763 20.4002 63.1028 20.3522 63.4638 20.2966L63.3583 19.611ZM62.1278 19.7498C61.6538 19.7893 61.1174 19.8093 60.5178 19.8093V20.503C61.1322 20.503 61.6883 20.4825 62.1854 20.4411L62.1278 19.7498ZM60.5178 19.8093C59.5872 19.8093 58.8921 19.7288 58.4144 19.5819L58.2104 20.2449C58.7849 20.4216 59.56 20.503 60.5178 20.503V19.8093ZM58.4144 19.5819C57.9506 19.4391 57.6229 19.204 57.4042 18.8869L56.8332 19.2807C57.154 19.746 57.6221 20.0639 58.2104 20.2449L58.4144 19.5819ZM57.4117 18.8982C57.1931 18.5531 57.0421 18.0772 56.9782 17.4502L56.288 17.5206C56.359 18.2155 56.5317 18.8052 56.8257 19.2694L57.4117 18.8982ZM56.9788 17.4572C56.9259 16.8092 56.899 15.9831 56.899 14.9766H56.2053C56.2053 15.9933 56.2324 16.8398 56.2874 17.5137L56.9788 17.4572ZM56.899 14.9766C56.899 13.9306 56.9326 13.0729 56.9985 12.4004L56.3081 12.3327C56.2392 13.0361 56.2053 13.9184 56.2053 14.9766H56.899ZM56.9978 12.4071C57.0749 11.752 57.2386 11.2641 57.468 10.9201L56.8908 10.5353C56.5806 11.0006 56.3936 11.6054 56.3089 12.326L56.9978 12.4071ZM57.4708 10.9158C57.6932 10.5711 58.0152 10.3281 58.4573 10.1885L58.2484 9.52696C57.6655 9.71106 57.2051 10.048 56.8879 10.5397L57.4708 10.9158ZM58.4573 10.1885C58.9212 10.042 59.5823 9.96176 60.4571 9.96176V9.26807C59.5514 9.26807 58.8097 9.34973 58.2484 9.52696L58.4573 10.1885ZM60.4571 9.96176C61.0568 9.96176 61.5861 9.98177 62.0461 10.0212L62.1053 9.33004C61.6211 9.28853 61.0714 9.26807 60.4571 9.26807V9.96176ZM62.0469 10.0213C62.5271 10.0613 62.9293 10.1076 63.2551 10.1597L63.3647 9.47475C63.0161 9.41898 62.5955 9.37088 62.1045 9.32997L62.0469 10.0213ZM63.2625 10.1608C63.6431 10.2133 63.98 10.2784 64.2744 10.3552L64.4495 9.68396C64.1235 9.5989 63.759 9.52906 63.3573 9.47365L63.2625 10.1608ZM64.0151 10.0196V10.8491H64.7088V10.0196H64.0151ZM64.4134 10.5061C64.1388 10.4649 63.8246 10.4239 63.471 10.3832L63.3915 11.0723C63.7394 11.1124 64.0456 11.1524 64.3105 11.1921L64.4134 10.5061ZM63.4613 10.3822C63.1478 10.3549 62.781 10.3277 62.361 10.3007L62.3164 10.9929C62.7328 11.0198 63.0943 11.0466 63.4012 11.0733L63.4613 10.3822ZM62.361 10.3007C61.9337 10.2731 61.4472 10.2595 60.9022 10.2595V10.9532C61.4363 10.9532 61.9074 10.9665 62.3164 10.9929L62.361 10.3007ZM60.9022 10.2595C60.1548 10.2595 59.5577 10.2865 59.1178 10.3433L59.2066 11.0312C59.603 10.9801 60.1659 10.9532 60.9022 10.9532V10.2595ZM59.1288 10.342C58.6389 10.3894 58.227 10.5776 57.9404 10.9359L58.4821 11.3693C58.6271 11.188 58.8491 11.066 59.1956 11.0325L59.1288 10.342ZM57.9338 10.9445C57.6734 11.2917 57.5373 11.8013 57.4814 12.4161L58.1722 12.4789C58.2243 11.9067 58.3445 11.553 58.4887 11.3607L57.9338 10.9445ZM57.4808 12.4239C57.4395 13.0292 57.4193 13.8815 57.4193 14.9766H58.113C58.113 13.8866 58.1332 13.0528 58.1729 12.4711L57.4808 12.4239ZM57.4193 14.9766C57.4193 16.0179 57.4395 16.8301 57.4809 17.409L58.1728 17.3596C58.1332 16.8054 58.113 16.0125 58.113 14.9766H57.4193ZM57.4809 17.409C57.5232 18.0014 57.6524 18.4986 57.9135 18.8468L58.4685 18.4306C58.325 18.2393 58.2114 17.9002 58.1728 17.3596L57.4809 17.409ZM57.9188 18.8536C58.1973 19.2064 58.6158 19.3829 59.1096 19.4292L59.1743 18.7385C58.8049 18.7039 58.5894 18.5835 58.4632 18.4238L57.9188 18.8536ZM59.1096 19.4292C59.5574 19.4711 60.1838 19.4914 60.9831 19.4914V18.7977C60.1908 18.7977 59.5898 18.7774 59.1743 18.7385L59.1096 19.4292ZM60.9831 19.4914C61.5254 19.4914 62.0147 19.4846 62.4507 19.471L62.4291 18.7776C62.0018 18.791 61.5199 18.7977 60.9831 18.7977V19.4914ZM62.4615 19.4705C62.895 19.4434 63.2689 19.4162 63.5827 19.3889L63.5226 18.6978C63.216 18.7245 62.8481 18.7513 62.4182 18.7781L62.4615 19.4705ZM63.5924 19.3879C63.946 19.3471 64.2602 19.3062 64.5348 19.265L64.4319 18.579C64.167 18.6187 63.8608 18.6587 63.5129 18.6988L63.5924 19.3879ZM64.1365 18.922V19.7515H64.8302V18.922H64.1365ZM74.3193 19.9336H73.9725V20.2804H74.3193V19.9336ZM74.1372 11.6989L73.8055 11.8009L73.8095 11.8123L74.1372 11.6989ZM73.6112 10.93L73.4111 11.2135L73.4188 11.2186L73.6112 10.93ZM72.7007 10.6468L72.6751 10.9927L72.676 10.9927L72.7007 10.6468ZM70.1109 10.6468L70.1238 10.9936L70.1365 10.9927L70.1109 10.6468ZM69.1802 10.7075L69.1439 10.3624L69.1334 10.3638L69.1802 10.7075ZM68.3911 10.8086L68.3506 10.4642L68.0443 10.5002V10.8086H68.3911ZM68.3911 19.9336V20.2804H68.738V19.9336H68.3911ZM67.1772 19.9336H66.8303V20.2804H67.1772V19.9336ZM67.1772 5.26489V4.91804H66.8303V5.26489H67.1772ZM68.3911 5.26489H68.738V4.91804H68.3911V5.26489ZM68.3911 9.77678H68.0443V10.1668L68.4317 10.1212L68.3911 9.77678ZM69.1802 9.69585L69.2116 10.0413L69.2165 10.0408L69.1802 9.69585ZM70.1109 9.63515L70.1238 9.98176L70.1109 9.63515ZM73.1054 9.71608L73.0601 10.0601L73.069 10.061L73.1054 9.71608ZM74.4003 10.1612L74.2028 10.4464L74.209 10.4507L74.2155 10.4547L74.4003 10.1612ZM75.2298 11.2335L74.9065 11.3593L74.9078 11.3623L75.2298 11.2335ZM75.5131 19.9336V20.2804H75.8599V19.9336H75.5131ZM74.6662 19.9336V13.1961H73.9725V19.9336H74.6662ZM74.6662 13.1961C74.6662 12.5343 74.6051 11.9901 74.465 11.5854L73.8095 11.8123C73.9122 12.1091 73.9725 12.563 73.9725 13.1961H74.6662ZM74.4687 11.5969C74.3435 11.1899 74.1285 10.8581 73.8036 10.6414L73.4188 11.2186C73.5795 11.3258 73.7151 11.5064 73.8057 11.8009L74.4687 11.5969ZM73.8112 10.6467C73.5152 10.4378 73.1449 10.3308 72.7254 10.3008L72.676 10.9927C73.0119 11.0167 73.2485 11.0986 73.4112 11.2134L73.8112 10.6467ZM72.7263 10.3009C72.3508 10.2731 71.8966 10.2595 71.3653 10.2595V10.9532C71.8862 10.9532 72.3222 10.9665 72.6751 10.9927L72.7263 10.3009ZM71.3653 10.2595C70.887 10.2595 70.4601 10.2731 70.0853 10.3009L70.1365 10.9927C70.4902 10.9665 70.8995 10.9532 71.3653 10.9532V10.2595ZM70.0981 10.3002C69.729 10.3138 69.4104 10.3345 69.1439 10.3625L69.2165 11.0524C69.4626 11.0265 69.7645 11.0067 70.1238 10.9934L70.0981 10.3002ZM69.1334 10.3638C68.8381 10.4041 68.5773 10.4375 68.3506 10.4642L68.4317 11.1531C68.6636 11.1258 68.9288 11.0918 69.2271 11.0511L69.1334 10.3638ZM68.0443 10.8086V19.9336H68.738V10.8086H68.0443ZM68.3911 19.5867H67.1772V20.2804H68.3911V19.5867ZM67.524 19.9336V5.26489H66.8303V19.9336H67.524ZM67.1772 5.61173H68.3911V4.91804H67.1772V5.61173ZM68.0443 5.26489V9.77678H68.738V5.26489H68.0443ZM68.4317 10.1212C68.6572 10.0947 68.9171 10.068 69.2116 10.0413L69.1488 9.35043C68.8498 9.37761 68.5837 9.40489 68.3506 9.43231L68.4317 10.1212ZM69.2165 10.0408C69.4626 10.0149 69.7645 9.99506 70.1238 9.98176L70.0981 9.28854C69.729 9.30221 69.4104 9.32285 69.1439 9.35091L69.2165 10.0408ZM70.1238 9.98176C70.4826 9.96847 70.8964 9.96176 71.3653 9.96176V9.26807C70.8901 9.26807 70.4676 9.27486 70.0981 9.28854L70.1238 9.98176ZM71.3653 9.96176C72.0013 9.96176 72.5657 9.99491 73.0601 10.06L73.1506 9.3722C72.6199 9.30236 72.0243 9.26807 71.3653 9.26807V9.96176ZM73.069 10.061C73.5357 10.1101 73.909 10.2429 74.2028 10.4464L74.5977 9.87603C74.1901 9.59387 73.7001 9.42992 73.1417 9.37114L73.069 10.061ZM74.2155 10.4547C74.5043 10.6366 74.7388 10.928 74.9065 11.3592L75.5531 11.1078C75.3431 10.5679 75.0245 10.1444 74.5851 9.86769L74.2155 10.4547ZM74.9078 11.3623C75.073 11.7755 75.1662 12.3792 75.1662 13.1961H75.8599C75.8599 12.3405 75.7643 11.6358 75.5518 11.1047L74.9078 11.3623ZM75.1662 13.1961V19.9336H75.8599V13.1961H75.1662ZM75.5131 19.5867H74.3193V20.2804H75.5131V19.5867ZM87.3014 17.708L87.6458 17.7493L87.6459 17.7485L87.3014 17.708ZM86.7349 19.2659L86.466 19.0468L86.7349 19.2659ZM85.3996 19.9741L85.3375 19.6327L85.3285 19.6346L85.3996 19.9741ZM80.6247 19.9741L80.6942 19.6342L80.6881 19.6331L80.6247 19.9741ZM79.3095 19.2659L79.0406 19.485L79.3095 19.2659ZM78.743 17.708L78.3985 17.7485L78.3986 17.7493L78.743 17.708ZM78.7632 12.1642L79.107 12.2105L79.1071 12.2097L78.7632 12.1642ZM79.3702 10.5456L79.6343 10.7706L79.6382 10.7658L79.3702 10.5456ZM80.7056 9.79701L80.6345 9.45752H80.6345L80.7056 9.79701ZM85.3186 9.79701L85.246 10.1362L85.2476 10.1365L85.3186 9.79701ZM86.654 10.5456L86.3859 10.7658L86.39 10.7705L86.654 10.5456ZM87.261 12.1642L86.917 12.2097L86.9182 12.217L87.261 12.1642ZM86.1279 12.407L85.7826 12.4392L86.1279 12.407ZM85.7233 11.1526L85.4458 11.3607L85.4517 11.3685L85.458 11.376L85.7233 11.1526ZM84.7926 10.6873L84.7467 11.0313L84.7592 11.0325L84.7926 10.6873ZM81.2316 10.6873L81.2662 11.0325L81.276 11.0312L81.2316 10.6873ZM80.3009 11.1526L80.0301 10.9359L80.0287 10.9377L80.3009 11.1526ZM79.9165 12.407L79.5712 12.3749L79.9165 12.407ZM79.8963 17.4247L80.2422 17.3994L79.8963 17.4247ZM80.2402 18.6387L79.9608 18.8446L79.968 18.8536L80.2402 18.6387ZM81.1709 19.0838L81.2043 18.7386L81.1709 19.0838ZM84.8533 19.0838L84.8199 18.7386L84.8533 19.0838ZM85.784 18.6387L86.0562 18.8536L85.784 18.6387ZM86.1482 17.4247L86.4941 17.4501L86.1482 17.4247ZM87.076 14.9766C87.076 16.1034 87.0356 16.9987 86.957 17.6675L87.6459 17.7485C87.7291 17.0414 87.7697 16.1158 87.7697 14.9766H87.076ZM86.9571 17.6667C86.8807 18.3034 86.7067 18.7515 86.466 19.0468L87.0038 19.485C87.3566 19.052 87.5604 18.4614 87.6458 17.7493L86.9571 17.6667ZM86.466 19.0468C86.2349 19.3305 85.8733 19.5354 85.3375 19.6328L85.4616 20.3153C86.1128 20.1969 86.6415 19.9297 87.0038 19.485L86.466 19.0468ZM85.3285 19.6346C84.7824 19.7489 84.0204 19.8093 83.0323 19.8093V20.503C84.0405 20.503 84.8568 20.442 85.4706 20.3135L85.3285 19.6346ZM83.0323 19.8093C82.0308 19.8093 81.2547 19.7489 80.6942 19.6342L80.5551 20.3139C81.1816 20.442 82.0106 20.503 83.0323 20.503V19.8093ZM80.6881 19.6331C80.1676 19.5362 79.8111 19.3324 79.5784 19.0468L79.0406 19.485C79.4015 19.9278 79.9217 20.1961 80.5612 20.3151L80.6881 19.6331ZM79.5784 19.0468C79.3377 18.7515 79.1638 18.3034 79.0874 17.6667L78.3986 17.7493C78.4841 18.4614 78.6878 19.052 79.0406 19.485L79.5784 19.0468ZM79.0875 17.6675C79.0088 16.9987 78.9685 16.1034 78.9685 14.9766H78.2748C78.2748 16.1158 78.3154 17.0414 78.3985 17.7485L79.0875 17.6675ZM78.9685 14.9766C78.9685 13.8099 79.0155 12.8899 79.107 12.2105L78.4195 12.118C78.3221 12.8414 78.2748 13.7962 78.2748 14.9766H78.9685ZM79.1071 12.2097C79.1969 11.5297 79.3841 11.0642 79.6343 10.7705L79.1062 10.3207C78.7358 10.7555 78.5184 11.369 78.4194 12.1188L79.1071 12.2097ZM79.6382 10.7658C79.8883 10.4613 80.257 10.2453 80.7766 10.1365L80.6345 9.45752C79.9942 9.59155 79.4726 9.87456 79.1022 10.3255L79.6382 10.7658ZM80.7766 10.1365C81.3232 10.0221 82.072 9.96176 83.0323 9.96176V9.26807C82.0504 9.26807 81.2479 9.32914 80.6345 9.45752L80.7766 10.1365ZM83.0323 9.96176C83.9792 9.96176 84.7137 10.0221 85.246 10.1362L85.3913 9.45786C84.7905 9.32912 84.0008 9.26807 83.0323 9.26807V9.96176ZM85.2476 10.1365C85.7672 10.2453 86.1359 10.4613 86.386 10.7658L86.922 10.3255C86.5516 9.87456 86.03 9.59155 85.3897 9.45752L85.2476 10.1365ZM86.39 10.7705C86.6401 11.0642 86.8273 11.5297 86.9171 12.2097L87.6048 12.1188C87.5058 11.369 87.2884 10.7555 86.918 10.3207L86.39 10.7705ZM86.9182 12.217C87.0222 12.8934 87.076 13.8109 87.076 14.9766H87.7697C87.7697 13.7952 87.7155 12.8379 87.6038 12.1115L86.9182 12.217ZM86.5557 14.8754C86.5557 13.8063 86.5287 12.9709 86.4733 12.3749L85.7826 12.4392C85.8351 13.0031 85.862 13.8133 85.862 14.8754H86.5557ZM86.4733 12.3749C86.4171 11.7706 86.2727 11.2666 85.9886 10.9292L85.458 11.376C85.6055 11.5512 85.7309 11.8835 85.7826 12.4392L86.4733 12.3749ZM86.0008 10.9445C85.7261 10.5783 85.3156 10.3894 84.826 10.342L84.7592 11.0325C85.1059 11.066 85.3158 11.1873 85.4458 11.3607L86.0008 10.9445ZM84.8384 10.3434C84.4114 10.2865 83.834 10.2595 83.1133 10.2595V10.9532C83.8224 10.9532 84.3645 10.9801 84.7467 11.0311L84.8384 10.3434ZM83.1133 10.2595H82.9312V10.9532H83.1133V10.2595ZM82.9312 10.2595C82.2101 10.2595 81.6267 10.2865 81.1872 10.3433L81.276 11.0312C81.6728 10.98 82.2225 10.9532 82.9312 10.9532V10.2595ZM81.1971 10.3421C80.7174 10.3901 80.3145 10.5804 80.0301 10.9359L80.5718 11.3693C80.719 11.1852 80.9366 11.0653 81.2661 11.0324L81.1971 10.3421ZM80.0287 10.9377C79.7635 11.2736 79.6271 11.7737 79.5712 12.3749L80.2619 12.4392C80.3138 11.8804 80.4337 11.5442 80.5732 11.3675L80.0287 10.9377ZM79.5712 12.3749C79.5157 12.9709 79.4887 13.8063 79.4887 14.8754H80.1824C80.1824 13.8133 80.2094 13.0031 80.2619 12.4392L79.5712 12.3749ZM79.4887 14.8754V15.0575H80.1824V14.8754H79.4887ZM79.4887 15.0575C79.4887 16.0853 79.509 16.8843 79.5504 17.4501L80.2422 17.3994C80.2027 16.8591 80.1824 16.08 80.1824 15.0575H79.4887ZM79.5504 17.4501C79.5925 18.0259 79.7141 18.5094 79.961 18.8444L80.5195 18.433C80.3886 18.2554 80.281 17.9296 80.2422 17.3994L79.5504 17.4501ZM79.968 18.8536C80.2444 19.2038 80.6537 19.3822 81.1375 19.4291L81.2043 18.7386C80.8519 18.7045 80.6407 18.5862 80.5125 18.4238L79.968 18.8536ZM81.1375 19.4291C81.5722 19.4711 82.172 19.4914 82.9312 19.4914V18.7977C82.1797 18.7977 81.6059 18.7775 81.2043 18.7386L81.1375 19.4291ZM82.9312 19.4914H83.1133V18.7977H82.9312V19.4914ZM83.1133 19.4914C83.8592 19.4914 84.4521 19.4711 84.8867 19.4291L84.8199 18.7386C84.4181 18.7775 83.851 18.7977 83.1133 18.7977V19.4914ZM84.8867 19.4291C85.3705 19.3822 85.7798 19.2038 86.0562 18.8536L85.5118 18.4238C85.3836 18.5862 85.1724 18.7045 84.8199 18.7386L84.8867 19.4291ZM86.0562 18.8536C86.3222 18.5168 86.4517 18.0291 86.4941 17.4501L85.8023 17.3994C85.7637 17.9264 85.6505 18.2481 85.5118 18.4238L86.0562 18.8536ZM86.4941 17.4501C86.5355 16.8843 86.5557 16.0853 86.5557 15.0575H85.862C85.862 16.08 85.8418 16.8591 85.8023 17.3994L86.4941 17.4501ZM86.5557 15.0575V14.8754H85.862V15.0575H86.5557ZM98.9684 17.708L99.3128 17.7493L99.3129 17.7485L98.9684 17.708ZM98.4019 19.2659L98.133 19.0468L98.4019 19.2659ZM97.0666 19.9741L97.0045 19.6327L96.9955 19.6346L97.0666 19.9741ZM92.2916 19.9741L92.3612 19.6342L92.3551 19.6331L92.2916 19.9741ZM90.9765 19.2659L90.7076 19.485L90.9765 19.2659ZM90.41 17.708L90.0655 17.7485L90.0656 17.7493L90.41 17.708ZM90.4302 12.1642L90.774 12.2105L90.7741 12.2097L90.4302 12.1642ZM91.0372 10.5456L91.3013 10.7706L91.3052 10.7658L91.0372 10.5456ZM92.3726 9.79701L92.3015 9.45752H92.3015L92.3726 9.79701ZM96.9856 9.79701L96.913 10.1362L96.9146 10.1365L96.9856 9.79701ZM98.321 10.5456L98.0529 10.7658L98.057 10.7705L98.321 10.5456ZM98.928 12.1642L98.584 12.2097L98.5852 12.217L98.928 12.1642ZM97.7949 12.407L97.4496 12.4392L97.7949 12.407ZM97.3903 11.1526L97.1128 11.3607L97.1187 11.3685L97.125 11.376L97.3903 11.1526ZM96.4596 10.6873L96.4137 11.0313L96.4262 11.0325L96.4596 10.6873ZM92.8986 10.6873L92.9332 11.0325L92.943 11.0312L92.8986 10.6873ZM91.9679 11.1526L91.6971 10.9359L91.6957 10.9377L91.9679 11.1526ZM91.5835 12.407L91.2381 12.3749L91.5835 12.407ZM91.5633 17.4247L91.9092 17.3994L91.5633 17.4247ZM91.9072 18.6387L91.6278 18.8446L91.635 18.8536L91.9072 18.6387ZM92.8379 19.0838L92.8713 18.7386L92.8379 19.0838ZM96.5203 19.0838L96.4869 18.7386L96.5203 19.0838ZM97.451 18.6387L97.7232 18.8536L97.451 18.6387ZM97.8152 17.4247L98.1611 17.4501L97.8152 17.4247ZM98.743 14.9766C98.743 16.1034 98.7026 16.9987 98.624 17.6675L99.3129 17.7485C99.3961 17.0414 99.4367 16.1158 99.4367 14.9766H98.743ZM98.6241 17.6667C98.5477 18.3034 98.3737 18.7515 98.133 19.0468L98.6708 19.485C99.0236 19.052 99.2274 18.4614 99.3128 17.7493L98.6241 17.6667ZM98.133 19.0468C97.9019 19.3305 97.5403 19.5354 97.0045 19.6328L97.1286 20.3153C97.7798 20.1969 98.3085 19.9297 98.6708 19.485L98.133 19.0468ZM96.9955 19.6346C96.4494 19.7489 95.6874 19.8093 94.6993 19.8093V20.503C95.7075 20.503 96.5238 20.442 97.1376 20.3135L96.9955 19.6346ZM94.6993 19.8093C93.6978 19.8093 92.9217 19.7489 92.3612 19.6342L92.2221 20.3139C92.8486 20.442 93.6776 20.503 94.6993 20.503V19.8093ZM92.3551 19.6331C91.8346 19.5362 91.4781 19.3324 91.2454 19.0468L90.7076 19.485C91.0685 19.9278 91.5887 20.1961 92.2282 20.3151L92.3551 19.6331ZM91.2454 19.0468C91.0047 18.7515 90.8308 18.3034 90.7544 17.6667L90.0656 17.7493C90.1511 18.4614 90.3548 19.052 90.7076 19.485L91.2454 19.0468ZM90.7545 17.6675C90.6758 16.9987 90.6355 16.1034 90.6355 14.9766H89.9418C89.9418 16.1158 89.9823 17.0414 90.0655 17.7485L90.7545 17.6675ZM90.6355 14.9766C90.6355 13.8099 90.6825 12.8899 90.774 12.2105L90.0865 12.118C89.9891 12.8414 89.9418 13.7962 89.9418 14.9766H90.6355ZM90.7741 12.2097C90.8639 11.5297 91.0511 11.0642 91.3013 10.7705L90.7732 10.3207C90.4028 10.7555 90.1854 11.369 90.0864 12.1188L90.7741 12.2097ZM91.3052 10.7658C91.5553 10.4613 91.924 10.2453 92.4436 10.1365L92.3015 9.45752C91.6612 9.59155 91.1396 9.87456 90.7692 10.3255L91.3052 10.7658ZM92.4436 10.1365C92.9902 10.0221 93.739 9.96176 94.6993 9.96176V9.26807C93.7174 9.26807 92.9149 9.32914 92.3015 9.45752L92.4436 10.1365ZM94.6993 9.96176C95.6462 9.96176 96.3807 10.0221 96.913 10.1362L97.0583 9.45786C96.4575 9.32912 95.6678 9.26807 94.6993 9.26807V9.96176ZM96.9146 10.1365C97.4342 10.2453 97.8029 10.4613 98.053 10.7658L98.589 10.3255C98.2186 9.87456 97.697 9.59155 97.0567 9.45752L96.9146 10.1365ZM98.057 10.7705C98.3071 11.0642 98.4943 11.5297 98.5841 12.2097L99.2718 12.1188C99.1728 11.369 98.9554 10.7555 98.585 10.3207L98.057 10.7705ZM98.5852 12.217C98.6892 12.8934 98.743 13.8109 98.743 14.9766H99.4367C99.4367 13.7952 99.3825 12.8379 99.2708 12.1115L98.5852 12.217ZM98.2227 14.8754C98.2227 13.8063 98.1957 12.9709 98.1403 12.3749L97.4496 12.4392C97.502 13.0031 97.529 13.8133 97.529 14.8754H98.2227ZM98.1403 12.3749C98.0841 11.7706 97.9397 11.2666 97.6556 10.9292L97.125 11.376C97.2725 11.5512 97.3979 11.8835 97.4496 12.4392L98.1403 12.3749ZM97.6678 10.9445C97.3931 10.5783 96.9826 10.3894 96.493 10.342L96.4262 11.0325C96.7729 11.066 96.9828 11.1873 97.1128 11.3607L97.6678 10.9445ZM96.5054 10.3434C96.0784 10.2865 95.5009 10.2595 94.7803 10.2595V10.9532C95.4894 10.9532 96.0315 10.9801 96.4137 11.0311L96.5054 10.3434ZM94.7803 10.2595H94.5982V10.9532H94.7803V10.2595ZM94.5982 10.2595C93.8771 10.2595 93.2937 10.2865 92.8542 10.3433L92.943 11.0312C93.3398 10.98 93.8895 10.9532 94.5982 10.9532V10.2595ZM92.8641 10.3421C92.3844 10.3901 91.9815 10.5804 91.6971 10.9359L92.2388 11.3693C92.386 11.1852 92.6036 11.0653 92.9331 11.0324L92.8641 10.3421ZM91.6957 10.9377C91.4305 11.2736 91.2941 11.7737 91.2381 12.3749L91.9289 12.4392C91.9808 11.8804 92.1007 11.5442 92.2402 11.3675L91.6957 10.9377ZM91.2381 12.3749C91.1827 12.9709 91.1557 13.8063 91.1557 14.8754H91.8494C91.8494 13.8133 91.8764 13.0031 91.9289 12.4392L91.2381 12.3749ZM91.1557 14.8754V15.0575H91.8494V14.8754H91.1557ZM91.1557 15.0575C91.1557 16.0853 91.176 16.8843 91.2174 17.4501L91.9092 17.3994C91.8697 16.8591 91.8494 16.08 91.8494 15.0575H91.1557ZM91.2174 17.4501C91.2595 18.0259 91.3811 18.5094 91.628 18.8444L92.1865 18.433C92.0556 18.2554 91.948 17.9296 91.9092 17.3994L91.2174 17.4501ZM91.635 18.8536C91.9114 19.2038 92.3207 19.3822 92.8045 19.4291L92.8713 18.7386C92.5189 18.7045 92.3077 18.5862 92.1795 18.4238L91.635 18.8536ZM92.8045 19.4291C93.2392 19.4711 93.839 19.4914 94.5982 19.4914V18.7977C93.8467 18.7977 93.2729 18.7775 92.8713 18.7386L92.8045 19.4291ZM94.5982 19.4914H94.7803V18.7977H94.5982V19.4914ZM94.7803 19.4914C95.5262 19.4914 96.1191 19.4711 96.5537 19.4291L96.4869 18.7386C96.0851 18.7775 95.518 18.7977 94.7803 18.7977V19.4914ZM96.5537 19.4291C97.0375 19.3822 97.4468 19.2038 97.7232 18.8536L97.1788 18.4238C97.0505 18.5862 96.8394 18.7045 96.4869 18.7386L96.5537 19.4291ZM97.7232 18.8536C97.9892 18.5168 98.1187 18.0291 98.1611 17.4501L97.4693 17.3994C97.4307 17.9264 97.3175 18.2481 97.1788 18.4238L97.7232 18.8536ZM98.1611 17.4501C98.2025 16.8843 98.2227 16.0853 98.2227 15.0575H97.529C97.529 16.08 97.5088 16.8591 97.4693 17.3994L98.1611 17.4501ZM98.2227 15.0575V14.8754H97.529V15.0575H98.2227ZM107.985 19.9336V20.2804H108.224L108.309 20.0566L107.985 19.9336ZM106.225 19.9336L105.9 20.0566L105.985 20.2804H106.225V19.9336ZM101.005 6.17536V5.82851H100.502L100.68 6.2984L101.005 6.17536ZM102.279 6.17536L102.603 6.05193L102.518 5.82851H102.279V6.17536ZM107.095 18.8208L106.771 18.9442L107.095 19.7954L107.419 18.9442L107.095 18.8208ZM111.91 6.17536V5.82851H111.671L111.586 6.05193L111.91 6.17536ZM113.205 6.17536L113.529 6.2984L113.708 5.82851H113.205V6.17536ZM107.985 19.5867H106.225V20.2804H107.985V19.5867ZM106.549 19.8106L101.329 6.05232L100.68 6.2984L105.9 20.0566L106.549 19.8106ZM101.005 6.5222H102.279V5.82851H101.005V6.5222ZM101.955 6.29879L106.771 18.9442L107.419 18.6974L102.603 6.05193L101.955 6.29879ZM107.419 18.9442L112.234 6.29879L111.586 6.05193L106.771 18.6974L107.419 18.9442ZM111.91 6.5222H113.205V5.82851H111.91V6.5222ZM112.881 6.05232L107.661 19.8106L108.309 20.0566L113.529 6.2984L112.881 6.05232ZM115.347 19.9336H115V20.2804H115.347V19.9336ZM115.347 9.83748V9.49063H115V9.83748H115.347ZM116.561 9.83748H116.908V9.49063H116.561V9.83748ZM116.561 19.9336V20.2804H116.908V19.9336H116.561ZM115.347 7.75351H115V8.10035H115.347V7.75351ZM115.347 5.26489V4.91804H115V5.26489H115.347ZM116.561 5.26489H116.908V4.91804H116.561V5.26489ZM116.561 7.75351V8.10035H116.908V7.75351H116.561ZM115.694 19.9336V9.83748H115V19.9336H115.694ZM115.347 10.1843H116.561V9.49063H115.347V10.1843ZM116.214 9.83748V19.9336H116.908V9.83748H116.214ZM116.561 19.5867H115.347V20.2804H116.561V19.5867ZM115.694 7.75351V5.26489H115V7.75351H115.694ZM115.347 5.61173H116.561V4.91804H115.347V5.61173ZM116.214 5.26489V7.75351H116.908V5.26489H116.214ZM116.561 7.40666H115.347V8.10035H116.561V7.40666ZM128.217 19.7515L128.301 20.088L128.564 20.0223V19.7515H128.217ZM127.084 19.9538L127.041 19.6096L127.033 19.6107L127.084 19.9538ZM125.728 20.0955L125.702 19.7496L125.702 19.7496L125.728 20.0955ZM122.349 20.0955L122.377 19.7496L122.368 19.7491L122.349 20.0955ZM120.974 19.7717L120.814 20.0801L120.827 20.086L120.974 19.7717ZM120.023 18.841L119.72 19.0111L119.723 19.0152L120.023 18.841ZM119.942 15.2598L119.631 15.1047L119.627 15.1132L119.942 15.2598ZM120.771 14.3696L120.612 14.0617L120.607 14.0642L120.771 14.3696ZM122.046 14.0459L122.065 14.3923L122.075 14.3915L122.046 14.0459ZM127.023 13.9852V14.332H127.37V13.9852H127.023ZM126.841 11.6989L126.508 11.7974L126.511 11.8049L126.513 11.8123L126.841 11.6989ZM126.295 10.9098L126.11 11.2031L126.295 10.9098ZM125.283 10.6266L125.26 10.9726L125.261 10.9727L125.283 10.6266ZM122.309 10.6468L122.331 10.9931L122.341 10.9921L122.309 10.6468ZM121.216 10.7277L121.186 10.382L121.177 10.3832L121.216 10.7277ZM120.265 10.8491H119.919V11.249L120.314 11.1925L120.265 10.8491ZM120.265 10.0196L120.178 9.68396L119.919 9.7516V10.0196H120.265ZM121.338 9.81724L121.384 10.1611L121.39 10.1601L121.338 9.81724ZM122.592 9.67562L122.621 10.0213L122.592 9.67562ZM125.87 9.71608L125.822 10.0598L125.832 10.0608L125.87 9.71608ZM127.124 10.1612L126.927 10.4465L126.934 10.4515L127.124 10.1612ZM127.934 11.2335L127.61 11.3593L127.612 11.3623L127.934 11.2335ZM127.023 14.9361H127.37V14.5893H127.023V14.9361ZM122.268 14.9766L122.282 15.3234L122.294 15.3225L122.268 14.9766ZM121.419 15.1991L121.597 15.4966L121.603 15.4933L121.419 15.1991ZM120.994 15.8061L120.66 15.7108L120.994 15.8061ZM121.034 18.2745L120.708 18.393L120.712 18.4022L120.715 18.4111L121.034 18.2745ZM121.581 18.922L121.4 19.2179L121.409 19.2237L121.419 19.2289L121.581 18.922ZM122.552 19.1648L122.528 19.511L122.54 19.5114L122.552 19.1648ZM125.222 19.1648L125.21 18.8181L125.222 19.1648ZM126.194 19.1041L126.164 18.7585L126.159 18.7589L126.194 19.1041ZM127.023 19.0029L127.08 19.345L127.37 19.2967V19.0029H127.023ZM128.133 19.415C127.826 19.4917 127.463 19.5569 127.041 19.6097L127.127 20.298C127.568 20.2428 127.96 20.1731 128.301 20.088L128.133 19.415ZM127.033 19.6107C126.68 19.663 126.237 19.7095 125.702 19.7496L125.754 20.4413C126.299 20.4005 126.759 20.3525 127.135 20.2969L127.033 19.6107ZM125.702 19.7496C125.186 19.7893 124.602 19.8093 123.948 19.8093V20.503C124.615 20.503 125.218 20.4826 125.755 20.4413L125.702 19.7496ZM123.948 19.8093C123.403 19.8093 122.88 19.7894 122.377 19.7497L122.322 20.4412C122.844 20.4825 123.386 20.503 123.948 20.503V19.8093ZM122.368 19.7491C121.893 19.7241 121.479 19.6248 121.12 19.4574L120.827 20.086C121.277 20.2963 121.781 20.4129 122.331 20.4418L122.368 19.7491ZM121.133 19.4637C120.806 19.2946 120.536 19.0337 120.323 18.6669L119.723 19.0152C119.995 19.4846 120.359 19.8442 120.814 20.0798L121.133 19.4637ZM120.325 18.671C120.124 18.3137 120.005 17.7686 120.005 16.9999H119.312C119.312 17.8228 119.436 18.5051 119.72 19.0111L120.325 18.671ZM120.005 16.9999C120.005 16.2648 120.099 15.7439 120.256 15.4065L119.627 15.1132C119.407 15.585 119.312 16.2242 119.312 16.9999H120.005ZM120.252 15.415C120.427 15.0652 120.656 14.8255 120.936 14.675L120.607 14.0642C120.185 14.2914 119.861 14.6452 119.631 15.1047L120.252 15.415ZM120.931 14.6775C121.244 14.5151 121.62 14.4169 122.065 14.3922L122.027 13.6996C121.501 13.7288 121.027 13.8465 120.612 14.0617L120.931 14.6775ZM122.075 14.3915C122.549 14.352 123.072 14.332 123.644 14.332V13.6383C123.056 13.6383 122.514 13.6588 122.017 13.7002L122.075 14.3915ZM123.644 14.332H127.023V13.6383H123.644V14.332ZM127.37 13.9852V13.1961H126.676V13.9852H127.37ZM127.37 13.1961C127.37 12.5343 127.309 11.9901 127.169 11.5854L126.513 11.8123C126.616 12.1091 126.676 12.563 126.676 13.1961H127.37ZM127.174 11.6004C127.048 11.1767 126.824 10.8338 126.48 10.6166L126.11 11.2031C126.278 11.3095 126.418 11.4927 126.508 11.7974L127.174 11.6004ZM126.48 10.6166C126.16 10.4142 125.76 10.3098 125.305 10.2804L125.261 10.9727C125.642 10.9973 125.917 11.0817 126.11 11.2031L126.48 10.6166ZM125.306 10.2805C124.891 10.2528 124.391 10.2392 123.806 10.2392V10.9329C124.381 10.9329 124.866 10.9463 125.26 10.9726L125.306 10.2805ZM123.806 10.2392C123.232 10.2392 122.722 10.2597 122.277 10.3015L122.341 10.9921C122.759 10.9529 123.247 10.9329 123.806 10.9329V10.2392ZM122.287 10.3007C121.867 10.3277 121.5 10.3549 121.186 10.3822L121.246 11.0733C121.553 11.0466 121.915 11.0198 122.331 10.9929L122.287 10.3007ZM121.177 10.3832C120.823 10.4239 120.503 10.4648 120.216 10.5058L120.314 11.1925C120.594 11.1525 120.908 11.1125 121.256 11.0723L121.177 10.3832ZM120.612 10.8491V10.0196H119.919V10.8491H120.612ZM120.353 10.3552C120.646 10.2786 120.989 10.2136 121.384 10.161L121.292 9.47344C120.877 9.52879 120.505 9.59863 120.178 9.68396L120.353 10.3552ZM121.39 10.1601C121.731 10.1077 122.141 10.0613 122.621 10.0213L122.563 9.32997C122.072 9.37087 121.646 9.4189 121.285 9.47443L121.39 10.1601ZM122.621 10.0213C123.095 9.98178 123.638 9.96176 124.251 9.96176V9.26807C123.624 9.26807 123.061 9.28852 122.563 9.32997L122.621 10.0213ZM124.251 9.96176C124.832 9.96176 125.355 9.99478 125.822 10.0596L125.918 9.37253C125.413 9.30249 124.858 9.26807 124.251 9.26807V9.96176ZM125.832 10.0608C126.268 10.1093 126.63 10.2408 126.927 10.4464L127.322 9.87603C126.917 9.59601 126.443 9.43073 125.908 9.37136L125.832 10.0608ZM126.934 10.4515C127.211 10.6325 127.441 10.9245 127.61 11.3592L128.257 11.1078C128.048 10.5714 127.739 10.1485 127.314 9.8709L126.934 10.4515ZM127.612 11.3623C127.777 11.7755 127.87 12.3792 127.87 13.1961H128.564C128.564 12.3405 128.468 11.6358 128.256 11.1047L127.612 11.3623ZM127.87 13.1961V19.7515H128.564V13.1961H127.87ZM127.023 14.5893H123.644V15.283H127.023V14.5893ZM123.644 14.5893C123.087 14.5893 122.619 14.6028 122.243 14.6307L122.294 15.3225C122.647 15.2964 123.096 15.283 123.644 15.283V14.5893ZM122.255 14.63C121.866 14.645 121.518 14.7282 121.235 14.905L121.603 15.4933C121.751 15.4003 121.97 15.3352 122.282 15.3232L122.255 14.63ZM121.24 14.9017C120.945 15.0789 120.759 15.365 120.66 15.7108L121.327 15.9014C121.39 15.6808 121.488 15.5621 121.597 15.4966L121.24 14.9017ZM120.66 15.7108C120.566 16.0398 120.526 16.4751 120.526 16.9999H121.219C121.219 16.4995 121.259 16.139 121.327 15.9014L120.66 15.7108ZM120.526 16.9999C120.526 17.5677 120.58 18.04 120.708 18.393L121.36 18.156C121.273 17.9155 121.219 17.5381 121.219 16.9999H120.526ZM120.715 18.4111C120.863 18.7547 121.09 19.0289 121.4 19.2179L121.761 18.626C121.585 18.5183 121.449 18.3608 121.353 18.1379L120.715 18.4111ZM121.419 19.2289C121.73 19.3927 122.105 19.4816 122.528 19.5108L122.576 18.8187C122.216 18.794 121.943 18.721 121.742 18.615L121.419 19.2289ZM122.54 19.5114C122.936 19.5251 123.406 19.5318 123.948 19.5318V18.8381C123.411 18.8381 122.95 18.8314 122.564 18.8181L122.54 19.5114ZM123.948 19.5318C124.423 19.5318 124.852 19.525 125.235 19.5114L125.21 18.8181C124.837 18.8314 124.417 18.8381 123.948 18.8381V19.5318ZM125.235 19.5114C125.617 19.4977 125.949 19.4771 126.228 19.4492L126.159 18.7589C125.899 18.7849 125.583 18.8048 125.21 18.8181L125.235 19.5114ZM126.224 19.4496C126.541 19.422 126.826 19.3873 127.08 19.345L126.966 18.6608C126.734 18.6994 126.467 18.7321 126.164 18.7585L126.224 19.4496ZM127.37 19.0029V14.9361H126.676V19.0029H127.37Z" fill="#0A958B" mask="url(#path-7-outside-1_78_658)"></path><path d="M43.6343 24.8271H129.19" stroke="#0A958B" stroke-width="0.924923"></path><path d="M49.2942 28.7586C49.189 28.6387 49.0662 28.5329 48.9259 28.4412C48.7857 28.3424 48.6278 28.2578 48.4525 28.1872C48.2771 28.1167 48.0877 28.0603 47.8843 28.0179C47.6879 27.9756 47.4775 27.9544 47.2531 27.9544C46.6007 27.9544 46.1203 28.0814 45.8116 28.3354C45.51 28.5823 45.3592 28.9209 45.3592 29.3512C45.3592 29.6475 45.4294 29.8803 45.5696 30.0496C45.7169 30.2189 45.9449 30.3565 46.2535 30.4623C46.5622 30.5681 46.9549 30.6774 47.4319 30.7903C47.965 30.9032 48.4244 31.0372 48.8102 31.1924C49.196 31.3476 49.4941 31.5593 49.7045 31.8273C49.9149 32.0883 50.0202 32.4446 50.0202 32.8961C50.0202 33.2417 49.9535 33.5415 49.8203 33.7955C49.687 34.0495 49.5011 34.2611 49.2626 34.4304C49.0241 34.5997 48.7401 34.7267 48.4104 34.8113C48.0807 34.8889 47.7195 34.9277 47.3267 34.9277C46.9409 34.9277 46.5692 34.8889 46.2114 34.8113C45.8607 34.7267 45.5276 34.6068 45.2119 34.4516C44.8963 34.2893 44.6017 34.0847 44.3281 33.8378L44.6964 33.2347C44.8296 33.3758 44.9875 33.5098 45.1698 33.6368C45.3592 33.7567 45.5661 33.8661 45.7906 33.9648C46.0221 34.0636 46.2676 34.1412 46.5271 34.1976C46.7936 34.247 47.0672 34.2717 47.3477 34.2717C47.944 34.2717 48.4069 34.1623 48.7366 33.9436C49.0732 33.725 49.2416 33.4005 49.2416 32.9701C49.2416 32.6597 49.1574 32.4128 48.9891 32.2294C48.8207 32.039 48.5682 31.8838 48.2315 31.7638C47.8949 31.6439 47.481 31.5275 46.99 31.4146C46.471 31.2947 46.0326 31.1607 45.6749 31.0125C45.3171 30.8644 45.0471 30.6704 44.8647 30.4305C44.6894 30.1836 44.6017 29.8591 44.6017 29.457C44.6017 28.9914 44.7139 28.5999 44.9384 28.2825C45.1698 27.958 45.4855 27.7146 45.8853 27.5523C46.2851 27.383 46.7445 27.2984 47.2636 27.2984C47.5932 27.2984 47.8984 27.3336 48.1789 27.4042C48.4665 27.4677 48.7295 27.5629 48.968 27.6899C49.2135 27.8169 49.4415 27.9756 49.6519 28.1661L49.2942 28.7586Z" fill="#0A958B"></path><path d="M51.5208 35.1655V31.38H50.7633V30.8086H51.5208V28.9741H52.2363V30.8086H53.4989V31.38H52.2363V34.9644V35.1655H51.5208Z" fill="#0A958B"></path><path d="M54.5821 33.277C54.5821 32.9313 54.6803 32.6351 54.8767 32.3881C55.0731 32.1342 55.3432 31.9402 55.6869 31.8062C56.0376 31.6651 56.4409 31.5945 56.8968 31.5945C57.1634 31.5945 57.4404 31.6157 57.728 31.658C58.0156 31.7003 58.2716 31.7638 58.4961 31.8485V31.3829C58.4961 30.9173 58.3593 30.5469 58.0857 30.2718C57.8122 29.9967 57.4334 29.8591 56.9494 29.8591C56.6548 29.8591 56.3637 29.9156 56.0762 30.0284C55.7956 30.1343 55.501 30.293 55.1924 30.5046L54.9188 29.9967C55.2765 29.7498 55.6273 29.5664 55.971 29.4464C56.3147 29.3195 56.6654 29.256 57.0231 29.256C57.6965 29.256 58.2295 29.45 58.6223 29.838C59.0151 30.226 59.2115 30.7621 59.2115 31.4464V33.9966C59.2115 34.0953 59.2326 34.1694 59.2746 34.2188C59.3167 34.2611 59.3834 34.2858 59.4746 34.2928V34.8643C59.3974 34.8713 59.3308 34.8784 59.2746 34.8854C59.2185 34.8925 59.1764 34.8925 59.1484 34.8854C58.973 34.8784 58.8398 34.8219 58.7486 34.7161C58.6574 34.6103 58.6083 34.4974 58.6013 34.3775L58.5908 33.9754C58.3453 34.2928 58.0261 34.5397 57.6333 34.7161C57.2405 34.8854 56.8407 34.9701 56.4339 34.9701C56.0832 34.9701 55.764 34.896 55.4765 34.7479C55.1959 34.5927 54.9749 34.3881 54.8136 34.1341C54.6593 33.8731 54.5821 33.5874 54.5821 33.277ZM58.2541 33.7003C58.3312 33.6015 58.3909 33.5063 58.4329 33.4146C58.475 33.3229 58.4961 33.2417 58.4961 33.1712V32.367C58.2576 32.2753 58.0086 32.2047 57.7491 32.1554C57.4965 32.106 57.2405 32.0813 56.981 32.0813C56.469 32.0813 56.0551 32.1836 55.7395 32.3881C55.4238 32.5927 55.266 32.8714 55.266 33.2241C55.266 33.4287 55.3186 33.6227 55.4238 33.8061C55.5291 33.9824 55.6834 34.1306 55.8868 34.2505C56.0902 34.3634 56.3287 34.4198 56.6022 34.4198C56.9459 34.4198 57.2651 34.3528 57.5597 34.2188C57.8613 34.0847 58.0928 33.9119 58.2541 33.7003Z" fill="#0A958B"></path><path d="M61.6126 36.7706L61.845 36.4092C61.845 36.4092 62.0133 36.1623 62.1185 35.9224C62.2237 35.6826 62.371 35.3298 62.5604 34.8643L60.1721 30.8086H60.9296L62.9392 34.1235L64.7909 30.8086H65.5064L62.6656 36.4621L62.4447 36.8324L62.28 37.0609C62.2168 37.0609 61.5022 37.075 61.4111 37.0609L61.6126 36.7706Z" fill="#0A958B"></path><path d="M69.3207 34.8643V29.3512H70.0362V34.8643H69.3207ZM69.3207 28.7586V27.9439H70.0362V28.7586H69.3207Z" fill="#0A958B"></path><path d="M76.4307 34.8643H75.7153V31.785C75.7153 31.136 75.6206 30.6633 75.4312 30.3671C75.2418 30.0637 74.9437 29.912 74.5369 29.912C74.2563 29.912 73.9793 29.9826 73.7057 30.1237C73.4322 30.2577 73.1902 30.4447 72.9797 30.6845C72.7763 30.9173 72.629 31.1854 72.5378 31.4887V34.8643H71.8224V29.3512H72.4747V30.5998C72.622 30.3318 72.8149 30.099 73.0534 29.9015C73.2919 29.6969 73.5619 29.5382 73.8635 29.4253C74.1651 29.3124 74.4773 29.256 74.7999 29.256C75.1015 29.256 75.3576 29.3124 75.568 29.4253C75.7784 29.5382 75.9468 29.7004 76.073 29.912C76.1993 30.1166 76.2904 30.3671 76.3466 30.6633C76.4027 30.9526 76.4307 31.2771 76.4307 31.6368V34.8643Z" fill="#0A958B"></path><path d="M82.0059 34.8643H81.4021H81.2904V34.2563V31.38H80.5329V30.8086H81.2904V28.7586H82.0059V30.8086H83.2684V31.38H82.0059V34.0552V34.5126V34.8643Z" fill="#0A958B"></path><path d="M89.402 34.8643H88.6865V33.1017C88.6865 32.4809 88.5778 32.0153 88.3603 31.7049C88.1429 31.3875 87.8308 31.2287 87.424 31.2287C87.1574 31.2287 86.8909 31.2993 86.6243 31.4404C86.3648 31.5744 86.1333 31.7613 85.9299 32.0012C85.7335 32.234 85.5932 32.5021 85.5091 32.8054V34.8643H84.7936V27.1396H85.5091V31.9165C85.7265 31.5074 86.0281 31.1829 86.4139 30.943C86.8067 30.6961 87.224 30.5727 87.6659 30.5727C87.9816 30.5727 88.2481 30.6291 88.4656 30.742C88.69 30.8548 88.8689 31.0206 89.0022 31.2393C89.1424 31.4509 89.2441 31.7014 89.3073 31.9906C89.3704 32.2728 89.402 32.5938 89.402 32.9535V34.8643Z" fill="#0A958B"></path><path d="M93.5054 34.9701C93.1126 34.9701 92.7478 34.896 92.4111 34.7479C92.0745 34.5927 91.7834 34.3846 91.5379 34.1235C91.2924 33.8555 91.0995 33.5486 90.9592 33.2029C90.8259 32.8573 90.7593 32.4869 90.7593 32.0919C90.7593 31.5769 90.875 31.1042 91.1065 30.6739C91.345 30.2436 91.6711 29.9015 92.085 29.6475C92.4988 29.3865 92.9688 29.256 93.4948 29.256C94.0349 29.256 94.5049 29.3865 94.9047 29.6475C95.2321 29.8168 95.5705 30.1486 95.6806 30.35C95.9121 30.7732 95.9989 31.1049 95.9989 31.6128C95.9989 31.6692 95.9989 31.7257 95.9989 31.7821C95.9989 31.8315 95.9954 31.8703 95.9884 31.8985L91.5063 32.367C91.5414 32.762 91.6501 33.1148 91.8325 33.4251C92.0219 33.7285 92.2638 33.9719 92.5584 34.1553C92.86 34.3316 93.1862 34.4198 93.5369 34.4198C93.8946 34.4198 94.2313 34.3281 94.547 34.1447C94.8696 33.9613 95.0941 33.7214 95.2203 33.4251L95.8411 33.5945C95.7289 33.8555 95.557 34.0918 95.3255 34.3034C95.0941 34.5151 94.8205 34.6808 94.5049 34.8008C94.1963 34.9136 93.8631 34.9701 93.5054 34.9701ZM91.4853 31.8485L95.3255 31.38C95.2975 30.9779 95.1796 30.5793 94.9047 30.3723C94.9047 30.3723 94.598 30.145 94.4916 30.0813C94.197 29.905 93.8631 29.8168 93.5054 29.8168C93.1476 29.8168 92.8215 29.905 92.5269 30.0813C92.2323 30.2507 91.9903 30.4905 91.8009 30.8009C91.6185 31.1042 91.5133 31.4534 91.4853 31.8485Z" fill="#0A958B"></path><path d="M104.33 34.8643L102.299 32.039L101.131 33.1394V34.8643H100.416V27.1396H101.131V32.367L104.235 29.3618H105.024L102.783 31.6157L105.108 34.8643H104.33Z" fill="#0A958B"></path><path d="M110.814 34.8643H110.098V31.785C110.098 31.136 110.004 30.6633 109.814 30.3671C109.625 30.0637 109.327 29.912 108.92 29.912C108.639 29.912 108.362 29.9826 108.089 30.1237C107.815 30.2577 107.573 30.4447 107.363 30.6845C107.159 30.9173 107.012 31.1854 106.921 31.4887V34.8643H106.205V29.3512H106.858V30.5998C107.005 30.3318 107.198 30.099 107.436 29.9015C107.675 29.6969 107.945 29.5382 108.246 29.4253C108.548 29.3124 108.86 29.256 109.183 29.256C109.484 29.256 109.74 29.3124 109.951 29.4253C110.161 29.5382 110.33 29.7004 110.456 29.912C110.582 30.1166 110.673 30.3671 110.729 30.6633C110.786 30.9526 110.814 31.2771 110.814 31.6368V34.8643Z" fill="#0A958B"></path><path d="M114.885 34.9701C114.493 34.9701 114.128 34.896 113.791 34.7479C113.462 34.5927 113.174 34.3846 112.929 34.1235C112.69 33.8555 112.504 33.5521 112.371 33.2135C112.238 32.8678 112.171 32.5045 112.171 32.1236C112.171 31.7286 112.238 31.3617 112.371 31.0231C112.504 30.6774 112.694 30.3741 112.939 30.1131C113.185 29.845 113.472 29.6369 113.802 29.4888C114.138 29.3336 114.503 29.256 114.896 29.256C115.289 29.256 115.65 29.3336 115.98 29.4888C116.309 29.6369 116.597 29.845 116.842 30.1131C117.088 30.3741 117.277 30.6774 117.411 31.0231C117.544 31.3617 117.611 31.7286 117.611 32.1236C117.611 32.5045 117.544 32.8678 117.411 33.2135C117.277 33.5521 117.088 33.8555 116.842 34.1235C116.604 34.3846 116.316 34.5927 115.98 34.7479C115.65 34.896 115.285 34.9701 114.885 34.9701ZM112.897 32.1342C112.897 32.5433 112.985 32.9172 113.16 33.2558C113.342 33.5874 113.584 33.8519 113.886 34.0495C114.188 34.2399 114.521 34.3352 114.885 34.3352C115.25 34.3352 115.583 34.2364 115.885 34.0389C116.187 33.8414 116.429 33.5733 116.611 33.2347C116.793 32.889 116.885 32.5151 116.885 32.113C116.885 31.7039 116.793 31.33 116.611 30.9914C116.429 30.6528 116.187 30.3847 115.885 30.1872C115.583 29.9896 115.25 29.8909 114.885 29.8909C114.521 29.8909 114.188 29.9932 113.886 30.1977C113.591 30.4023 113.353 30.6739 113.171 31.0125C112.988 31.3441 112.897 31.718 112.897 32.1342Z" fill="#0A958B"></path><path d="M125.735 29.3512H126.439L124.083 34.8643H123.462L122.315 32.1236L121.179 34.8643H120.558L118.201 29.3512H118.896L120.895 34.1235L121.905 31.6368L120.979 29.3618H121.733L122.484 31.0379L122.736 31.6368L123.746 34.1235L125.735 29.3512Z" fill="#0A958B"></path><path d="M127.781 33.1017V27.2772H128.496V33.1017H127.781ZM127.781 34.8643V34.0389H128.496V34.8643H127.781Z" fill="#0A958B"></path></svg>